<?xml version="1.0" standalone="no"?>
<!DOCTYPE svg PUBLIC "-//W3C//DTD SVG 20010904//EN"
 "http://www.w3.org/TR/2001/REC-SVG-20010904/DTD/svg10.dtd">
<svg version="1.0" xmlns="http://www.w3.org/2000/svg"
 width="1024.000000pt" height="1024.000000pt" viewBox="0 0 1024.000000 1024.000000"
 preserveAspectRatio="xMidYMid meet">

<g transform="translate(0.000000,1024.000000) scale(0.100000,-0.100000)"
fill="#000000" stroke="none">
<path d="M3214 9411 c-58 -10 -203 -55 -249 -78 -45 -23 -154 -102 -204 -148
-224 -206 -320 -564 -234 -880 50 -185 186 -394 328 -505 31 -25 69 -56 83
-70 l25 -24 31 39 c17 22 71 80 119 129 49 48 92 99 97 112 6 14 44 46 92 77
81 51 82 52 51 55 -18 2 -33 7 -33 13 0 12 104 92 188 146 97 61 224 125 325
163 59 22 84 36 75 41 -7 5 -21 9 -31 9 -44 0 -1 29 126 85 75 33 137 65 137
72 0 7 -7 13 -15 13 -18 0 -19 12 -3 28 8 8 5 37 -17 117 -74 279 -285 503
-550 584 -78 24 -255 36 -341 22z"/>
<path d="M7100 9410 c-82 -14 -191 -52 -256 -91 -132 -78 -274 -246 -338 -397
-37 -88 -77 -240 -65 -248 6 -4 3 -14 -7 -25 -16 -18 -15 -20 42 -44 196 -85
416 -196 422 -213 2 -8 -8 -12 -28 -12 -42 0 -32 -11 45 -55 180 -100 465
-313 465 -347 0 -4 -13 -8 -30 -8 -16 0 -30 -4 -30 -9 0 -5 24 -27 54 -51 30
-23 87 -77 126 -120 l72 -79 67 49 c81 59 202 184 254 263 57 85 104 185 133
284 24 77 27 106 28 233 0 156 -13 228 -70 363 -96 227 -302 413 -539 486 -80
25 -256 36 -345 21z"/>
<path d="M4127 7480 c-225 -56 -568 -425 -744 -800 -81 -172 -98 -226 -120
-372 -15 -102 -16 -130 -5 -230 26 -229 103 -362 251 -432 61 -28 76 -31 194
-34 112 -4 136 -2 198 18 39 13 98 40 131 62 69 45 182 157 218 218 73 121
125 193 197 271 154 165 272 387 308 575 18 89 20 276 4 360 -25 135 -130 272
-258 336 -64 32 -70 33 -201 35 -74 1 -152 -2 -173 -7z m102 -696 c152 -42
242 -184 212 -333 -16 -79 -41 -121 -97 -163 -106 -81 -270 -73 -375 20 -19
17 -48 55 -63 86 -25 50 -28 63 -25 138 4 71 8 90 35 133 32 52 103 108 158
124 48 14 94 13 155 -5z"/>
<path d="M4142 6738 c-27 -6 -55 -22 -77 -44 -55 -54 -69 -90 -70 -171 0 -63
3 -76 30 -114 43 -61 87 -84 160 -84 105 1 179 62 206 169 24 99 -22 197 -111
235 -53 23 -72 24 -138 9z m141 -79 c20 -28 10 -58 -21 -66 -42 -10 -68 40
-36 71 21 22 40 20 57 -5z m-169 -198 c19 -21 15 -56 -8 -64 -25 -10 -56 5
-62 29 -12 48 37 72 70 35z"/>
<path d="M6070 7476 c-88 -25 -169 -82 -230 -161 -59 -76 -89 -145 -106 -240
-36 -204 -2 -379 119 -620 72 -142 104 -192 170 -262 62 -66 104 -127 152
-225 61 -123 198 -260 317 -317 26 -12 83 -29 125 -36 192 -35 347 0 465 104
123 109 181 344 148 599 -54 413 -437 978 -770 1136 -62 29 -72 31 -205 33
-92 1 -156 -2 -185 -11z m349 -692 c68 -20 143 -88 168 -152 25 -66 23 -163
-6 -227 -49 -111 -136 -165 -266 -165 -171 0 -277 99 -277 260 -1 205 184 343
381 284z"/>
<path d="M6230 6737 c-57 -18 -116 -85 -130 -149 -21 -94 18 -190 97 -239 54
-34 147 -32 202 4 59 39 94 105 94 176 -2 157 -122 253 -263 208z m138 -59 c7
-7 12 -21 12 -33 0 -12 -5 -26 -12 -33 -29 -29 -78 -7 -78 35 0 36 52 57 78
31z m-140 -256 c2 -7 -3 -12 -12 -12 -9 0 -16 7 -16 16 0 17 22 14 28 -4z"/>
<path d="M8090 6365 l-1 -40 -20 24 c-11 13 -22 21 -26 17 -4 -3 3 -61 15
-128 11 -67 18 -126 15 -131 -3 -4 -13 -1 -23 8 -28 25 -33 5 -25 -96 5 -64 4
-93 -5 -104 -9 -11 -27 -144 -30 -225 0 -8 -4 -21 -9 -29 -8 -12 -12 -12 -25
-2 -19 16 -22 2 -31 -114 -7 -86 -21 -145 -35 -145 -5 0 -14 9 -20 20 -24 45
-38 27 -95 -125 -35 -94 -50 -119 -76 -125 -15 -4 -27 -21 -40 -55 -55 -144
-74 -186 -90 -201 -18 -16 -19 -15 -25 14 -4 18 -10 32 -14 32 -12 0 -47 -43
-81 -100 -65 -109 -120 -163 -131 -129 -9 26 -43 -11 -83 -92 -48 -95 -59
-107 -80 -89 -12 10 -25 2 -67 -37 -76 -71 -99 -85 -115 -71 -11 8 -31 -8 -95
-76 -75 -80 -83 -86 -112 -80 -29 5 -40 -2 -110 -65 -78 -70 -130 -99 -141
-80 -11 17 -41 9 -81 -19 -66 -48 -229 -142 -262 -151 -23 -7 -32 -6 -36 5
-10 26 -35 18 -126 -40 -24 -16 -76 -39 -115 -51 -38 -13 -103 -35 -143 -49
-61 -22 -84 -26 -131 -20 -46 5 -70 1 -131 -19 -41 -15 -98 -29 -126 -33 -55
-7 -205 10 -275 30 -31 9 -50 10 -71 2 -22 -8 -42 -6 -96 12 -74 24 -107 27
-117 13 -5 -9 -128 30 -229 73 -21 9 -53 16 -70 16 -20 0 -58 16 -99 40 -72
44 -87 48 -87 25 0 -8 -6 -15 -12 -15 -21 0 -127 54 -226 114 -51 32 -99 55
-105 53 -20 -7 -59 19 -112 72 -51 53 -72 62 -81 36 -14 -35 -75 -2 -164 87
-25 25 -69 58 -98 73 -29 16 -83 60 -120 97 -51 52 -72 67 -88 64 -25 -7 -77
41 -151 141 -61 83 -69 89 -81 68 -17 -32 -35 -14 -119 118 -15 23 -44 60 -64
83 -20 23 -40 51 -44 64 -5 16 -13 21 -30 17 -21 -4 -25 1 -35 47 -16 74 -40
136 -52 136 -6 0 -16 -8 -23 -17 -12 -16 -15 -13 -30 22 -9 22 -28 83 -41 135
-30 113 -38 124 -64 90 -17 -21 -21 -23 -30 -10 -11 17 -11 12 -19 155 -5 97
-8 110 -23 107 -16 -2 -18 10 -20 120 -3 101 -6 123 -18 123 -13 0 -15 24 -18
145 -2 119 -5 147 -18 157 -12 9 -15 24 -12 58 l3 47 -20 -25 c-11 -14 -34
-43 -52 -65 -51 -63 -183 -254 -183 -265 0 -5 7 -4 15 3 38 31 10 -24 -65
-130 -44 -62 -78 -116 -74 -119 3 -3 13 -6 22 -6 9 0 16 -4 15 -10 -1 -5 -37
-64 -81 -130 -68 -104 -142 -233 -142 -250 0 -3 8 -5 18 -5 45 -1 46 -16 6
-86 -69 -124 -124 -243 -124 -270 0 -12 4 -12 25 2 38 25 40 11 7 -48 -29 -51
-93 -214 -106 -270 -5 -21 -3 -28 9 -28 20 0 19 -12 -9 -100 -13 -41 -27 -93
-31 -114 -7 -34 -6 -38 9 -33 28 11 28 -14 2 -122 -14 -57 -31 -139 -37 -182
-11 -71 -11 -80 4 -92 16 -11 16 -18 -3 -102 -25 -115 -25 -118 2 -110 20 7
21 5 14 -51 -21 -181 -21 -177 2 -163 30 19 35 7 23 -51 -16 -75 -15 -101 6
-93 14 5 15 1 9 -33 -4 -21 -9 -79 -12 -129 -6 -83 -5 -89 10 -70 8 11 16 18
17 15 1 -3 3 -95 4 -205 2 -203 9 -285 26 -285 5 0 9 7 9 15 0 8 4 15 10 15
10 0 12 -10 34 -190 9 -69 26 -163 39 -210 18 -70 26 -85 41 -85 17 0 22 -12
32 -75 8 -41 26 -113 42 -160 23 -69 33 -86 51 -88 12 -2 24 -9 26 -15 2 -7
13 -45 25 -85 19 -68 23 -73 44 -68 21 5 24 -2 58 -117 65 -222 114 -334 150
-339 16 -2 41 -40 107 -160 58 -105 92 -158 105 -160 10 -2 28 -21 40 -43 95
-178 121 -223 140 -244 26 -29 109 -86 197 -134 62 -35 71 -37 170 -39 l104
-3 -3 48 c-2 26 0 47 5 47 5 0 19 -20 31 -44 18 -37 27 -46 57 -52 45 -8 291
-1 301 9 4 4 0 29 -9 55 -21 57 -21 78 -3 85 11 4 21 -14 38 -69 l23 -74 192
0 c106 0 193 1 193 3 0 1 -6 35 -14 76 -14 73 -9 121 13 121 17 0 55 -93 59
-148 l5 -54 86 4 c58 3 114 14 175 34 l88 29 -6 77 c-4 43 -9 84 -12 93 -8 21
19 19 38 -2 20 -24 37 -71 40 -113 3 -29 7 -35 25 -33 33 4 133 71 174 117 37
41 37 41 105 39 38 -1 116 -6 174 -11 132 -12 703 -13 790 -1 36 5 90 12 122
15 l56 7 44 -45 c40 -41 180 -128 206 -128 8 0 12 18 12 47 0 32 8 60 27 92
48 83 84 89 57 11 -9 -25 -17 -74 -17 -110 l-2 -65 105 -27 c114 -29 238 -37
244 -15 2 6 12 40 21 74 19 65 35 82 55 57 9 -9 10 -34 5 -79 l-7 -65 181 0
181 0 0 28 c0 34 23 120 40 152 11 21 13 22 22 6 6 -11 6 -45 -1 -98 -6 -44
-8 -84 -5 -89 3 -5 75 -9 160 -9 l154 0 30 47 c16 27 38 59 49 72 l21 24 0
-29 c-1 -16 -7 -46 -14 -67 -9 -24 -10 -39 -4 -43 14 -9 165 5 208 18 19 6 66
30 105 54 38 23 82 46 98 49 37 10 94 79 153 184 26 47 75 127 109 176 34 50
81 123 105 163 26 44 48 71 56 68 26 -10 53 39 134 238 54 135 79 174 80 124
1 -20 3 -19 19 12 54 102 131 382 131 477 0 115 26 159 51 88 7 -19 16 -35 19
-35 17 0 74 269 95 443 6 54 18 73 28 45 17 -48 36 122 37 325 0 119 9 141 30
74 7 -23 8 -1 4 86 -3 64 -2 117 3 117 5 0 15 -6 22 -12 11 -11 12 2 7 72 -4
47 -8 96 -9 110 -2 21 2 24 21 22 21 -3 22 0 22 70 0 40 -7 111 -16 158 -26
142 -28 160 -16 160 7 0 20 -17 31 -37 l20 -38 0 35 c1 19 -6 76 -14 125 -19
115 -19 129 0 121 11 -4 15 1 15 19 0 44 -22 128 -51 193 -36 79 -37 97 -8 81
21 -11 21 -10 15 27 -9 46 -60 177 -81 207 -15 22 -20 57 -8 57 4 0 20 -12 35
-27 15 -15 28 -22 28 -16 0 16 -57 177 -85 237 -76 169 -72 156 -50 156 8 0
15 6 15 13 0 22 -75 180 -117 247 -54 85 -61 110 -34 110 12 0 21 4 21 8 0 28
-119 239 -170 300 -33 41 -58 78 -55 83 3 4 19 6 35 2 17 -3 30 -2 30 3 0 12
-130 179 -209 269 -85 96 -91 113 -26 83 45 -20 39 0 -21 74 -115 141 -149
184 -166 208 l-17 25 -1 -40z m-2060 -5444 c0 -20 -13 -42 -30 -51 -16 -9 -16
-7 -2 25 15 33 32 46 32 26z"/>
<path d="M4848 5769 c-126 -9 -188 -31 -218 -81 -29 -48 -26 -100 13 -171 42
-81 183 -224 260 -265 63 -33 200 -82 232 -82 37 0 43 -14 50 -126 9 -139 4
-149 -72 -164 -164 -34 -303 12 -433 145 -74 75 -107 101 -117 92 -19 -19 132
-191 213 -243 67 -43 161 -74 223 -74 27 0 78 9 113 20 77 24 112 25 169 4 24
-9 78 -16 119 -17 130 -1 232 51 353 183 58 62 107 143 94 156 -3 4 -53 -41
-109 -99 -82 -85 -116 -112 -168 -136 -80 -38 -162 -48 -258 -31 -87 14 -86
12 -69 164 9 78 16 111 27 116 8 5 49 20 90 35 120 43 248 124 331 209 124
128 158 222 104 292 -33 43 -91 60 -245 74 -130 11 -541 11 -702 -1z"/>
</g>
</svg>
