<svg xmlns="http://www.w3.org/2000/svg" xmlns:xlink="http://www.w3.org/1999/xlink" width="500" zoomAndPan="magnify" viewBox="0 0 375 374.999991" height="500" preserveAspectRatio="xMidYMid meet" version="1.0"><defs><g/><clipPath id="856860ed8c"><path d="M 20.457031 20.457031 L 354.542969 20.457031 L 354.542969 354.542969 L 20.457031 354.542969 Z M 20.457031 20.457031 " clip-rule="nonzero"/></clipPath><clipPath id="923935d3fe"><path d="M 187.5 20.457031 C 95.246094 20.457031 20.457031 95.246094 20.457031 187.5 C 20.457031 279.753906 95.246094 354.542969 187.5 354.542969 C 279.753906 354.542969 354.542969 279.753906 354.542969 187.5 C 354.542969 95.246094 279.753906 20.457031 187.5 20.457031 Z M 187.5 20.457031 " clip-rule="nonzero"/></clipPath></defs><g clip-path="url(#856860ed8c)"><g clip-path="url(#923935d3fe)"><path fill="#ff5757" d="M 20.457031 20.457031 L 354.542969 20.457031 L 354.542969 354.542969 L 20.457031 354.542969 Z M 20.457031 20.457031 " fill-opacity="1" fill-rule="nonzero"/></g></g><g fill="#000000" fill-opacity="1"><g transform="translate(73.066406, 232.093157)"><g><path d="M 118.453125 -101.734375 C 121.273438 -101.734375 123.789062 -101.394531 126 -100.71875 C 128.21875 -100.050781 130.671875 -98.976562 133.359375 -97.5 C 137.929688 -94.945312 141.359375 -91.722656 143.640625 -87.828125 C 145.921875 -83.929688 147.257812 -80.335938 147.65625 -77.046875 C 148.0625 -73.765625 148.265625 -71.113281 148.265625 -69.09375 C 148.265625 -66.144531 147.925781 -62.550781 147.25 -58.3125 C 146.582031 -54.082031 145.378906 -49.21875 143.640625 -43.71875 C 142.023438 -38.882812 140.007812 -33.984375 137.59375 -29.015625 C 135.175781 -24.046875 132.285156 -19.242188 128.921875 -14.609375 C 125.566406 -9.972656 121.84375 -5.671875 117.75 -1.703125 C 113.65625 2.253906 109.054688 5.644531 103.953125 8.46875 C 94.953125 13.695312 85.953125 16.3125 76.953125 16.3125 C 66.742188 16.3125 58.820312 13.289062 53.1875 7.25 C 53.050781 6.976562 52.78125 6.710938 52.375 6.453125 C 52.238281 6.316406 52.101562 6.179688 51.96875 6.046875 C 51.84375 6.046875 49.765625 12.289062 45.734375 24.78125 L 35.25 57.21875 L -4.640625 57.21875 L 45.125 -96.09375 L 45.125 -97.703125 C 44.851562 -98.773438 44.316406 -99.582031 43.515625 -100.125 L 42.109375 -100.734375 L 86.625 -100.734375 L 81.796875 -86.21875 L 84.40625 -88.640625 C 89.375 -93.335938 94.847656 -96.691406 100.828125 -98.703125 C 106.804688 -100.722656 112.679688 -101.734375 118.453125 -101.734375 Z M 90.25 -71.515625 C 89.582031 -71.515625 88.878906 -71.476562 88.140625 -71.40625 C 87.398438 -71.34375 86.691406 -71.242188 86.015625 -71.109375 C 83.066406 -70.441406 80.347656 -68.765625 77.859375 -66.078125 C 75.378906 -63.390625 73.734375 -60.703125 72.921875 -58.015625 C 72.523438 -57.210938 71.921875 -55.601562 71.109375 -53.1875 C 70.304688 -50.769531 69.300781 -47.613281 68.09375 -43.71875 C 64.738281 -33.375 62.992188 -27.0625 62.859375 -24.78125 C 62.859375 -24.101562 62.859375 -23.5 62.859375 -22.96875 C 62.859375 -19.601562 63.523438 -17.082031 64.859375 -15.40625 C 66.203125 -13.726562 69.023438 -12.890625 73.328125 -12.890625 C 76.816406 -12.890625 79.234375 -13.160156 80.578125 -13.703125 C 85.273438 -15.710938 89.238281 -19.269531 92.46875 -24.375 C 95.425781 -28.9375 97.976562 -34.578125 100.125 -41.296875 C 101.195312 -44.648438 102.035156 -47.804688 102.640625 -50.765625 C 103.242188 -53.722656 103.546875 -56.207031 103.546875 -58.21875 C 103.546875 -59.289062 103.410156 -60.832031 103.140625 -62.84375 C 102.867188 -64.863281 101.757812 -66.8125 99.8125 -68.6875 C 97.875 -70.570312 94.6875 -71.515625 90.25 -71.515625 Z M 90.25 -71.515625 "/></g></g></g><g fill="#000000" fill-opacity="1"><g transform="translate(210.46015, 232.093157)"><g><path d="M 119.859375 -102.546875 L 121.875 -102.546875 L 109.59375 -64.875 L 106.375 -65.0625 C 105.425781 -65.0625 104.484375 -65.0625 103.546875 -65.0625 C 97.773438 -65.0625 92.40625 -63.988281 87.4375 -61.84375 C 84.070312 -60.363281 80.675781 -57.742188 77.25 -53.984375 C 73.832031 -50.222656 70.914062 -45.859375 68.5 -40.890625 C 67.414062 -38.878906 63.988281 -29.007812 58.21875 -11.28125 L 49.5625 15.3125 L 9.0625 15.3125 L 27.390625 -40.890625 C 33.578125 -59.828125 38.078125 -73.757812 40.890625 -82.6875 C 43.710938 -91.625 45.125 -96.425781 45.125 -97.09375 C 44.851562 -98.570312 44.25 -99.582031 43.3125 -100.125 C 43.3125 -100.125 43.3125 -100.191406 43.3125 -100.328125 C 43.3125 -100.328125 43.378906 -100.394531 43.515625 -100.53125 C 44.316406 -100.664062 46.460938 -100.734375 49.953125 -100.734375 L 87.4375 -100.734375 L 80.984375 -80.984375 L 83.203125 -83.796875 C 87.765625 -89.847656 93.398438 -94.484375 100.109375 -97.703125 C 106.828125 -100.929688 113.410156 -102.546875 119.859375 -102.546875 Z M 119.859375 -102.546875 "/></g></g></g></svg>