<svg xmlns="http://www.w3.org/2000/svg" xmlns:xlink="http://www.w3.org/1999/xlink" width="500" zoomAndPan="magnify" viewBox="0 0 375 374.999991" height="500" preserveAspectRatio="xMidYMid meet" version="1.0"><defs><clipPath id="9a4175fb93"><path d="M 85 19.453125 L 123 19.453125 L 123 40 L 85 40 Z M 85 19.453125 " clip-rule="nonzero"/></clipPath><clipPath id="efa5d2d9f7"><path d="M 81 116 L 224 116 L 224 355.453125 L 81 355.453125 Z M 81 116 " clip-rule="nonzero"/></clipPath><clipPath id="3416db46bd"><path d="M 232 116 L 375 116 L 375 355.453125 L 232 355.453125 Z M 232 116 " clip-rule="nonzero"/></clipPath></defs><path fill="#ff5757" d="M 93.636719 93 C 107.207031 86.175781 120.175781 78.15625 133.519531 70.882812 C 120.25 62.785156 106.832031 54.839844 92.886719 48.09375 C 79.09375 55.140625 65.597656 62.785156 52.402344 70.882812 C 62.972656 76.957031 73.769531 82.726562 84.265625 88.875 C 87.339844 90.449219 90.261719 92.398438 93.636719 93 Z M 93.636719 93 " fill-opacity="1" fill-rule="nonzero"/><path fill="#ff5757" d="M 366.90625 107.242188 C 320.796875 81.078125 274.390625 55.4375 228.285156 29.199219 C 209.242188 39.621094 190.347656 50.339844 171.382812 60.835938 C 170.03125 61.8125 165.234375 63.535156 168.832031 65.183594 C 178.578125 71.257812 188.925781 76.355469 198.746094 82.277344 C 202.417969 84.003906 206.542969 87.675781 210.742188 85.277344 C 220.1875 80.777344 228.734375 74.632812 238.253906 70.359375 L 267.71875 87.902344 C 260.894531 92.550781 253.324219 95.921875 246.425781 100.421875 C 243.429688 101.996094 239.753906 105.21875 236.304688 102.894531 C 228.433594 98.921875 220.9375 94.199219 213.289062 89.851562 C 209.917969 87.976562 205.792969 87.976562 202.417969 89.777344 C 188.476562 97.421875 174.679688 105.371094 160.886719 113.242188 C 146.566406 106.269531 133.519531 96.597656 118.75 90.675781 C 108.855469 95.398438 99.558594 101.246094 89.964844 106.492188 C 88.839844 107.167969 85.015625 109.269531 88.3125 110.316406 C 133.746094 136.109375 179.476562 161.296875 224.910156 187.085938 C 226.710938 188.0625 228.808594 188.8125 230.609375 187.386719 C 275.816406 161.898438 321.097656 136.558594 366.304688 111.140625 C 368.253906 110.917969 369.453125 108.070312 366.90625 107.242188 Z M 215.539062 138.433594 L 192.898438 126.660156 L 215.6875 114.589844 L 238.03125 126.660156 Z M 215.539062 138.433594 " fill-opacity="1" fill-rule="nonzero"/><path fill="#ff5757" d="M 184.050781 41.945312 L 155.863281 26.726562 L 128.949219 42.542969 L 156.3125 57.914062 Z M 184.050781 41.945312 " fill-opacity="1" fill-rule="nonzero"/><g clip-path="url(#9a4175fb93)"><path fill="#ff5757" d="M 122.5 29.125 L 104.808594 19.453125 L 85.988281 29.574219 L 104.582031 39.695312 Z M 122.5 29.125 " fill-opacity="1" fill-rule="nonzero"/></g><g clip-path="url(#efa5d2d9f7)"><path fill="#ff5757" d="M 81.566406 116.390625 C 81.417969 131.835938 81.492188 147.277344 81.417969 162.648438 C 95.285156 170.59375 109.230469 178.464844 123.25 186.113281 C 123.324219 204.03125 123.25 222.023438 123.25 239.941406 C 120.476562 238.292969 117.550781 236.71875 114.554688 235.144531 L 101.285156 227.796875 L 92.886719 223.148438 L 86.289062 219.476562 L 81.492188 216.851562 C 81.265625 236.566406 81.339844 256.285156 81.417969 276.003906 C 128.871094 302.394531 176.105469 329.308594 223.636719 355.546875 C 223.636719 302.394531 223.5625 249.3125 223.636719 196.160156 C 176.480469 169.46875 129.023438 142.855469 81.566406 116.390625 Z M 149.265625 283.351562 C 140.644531 279.152344 132.023438 274.726562 124.148438 269.179688 C 122.574219 259.808594 123.925781 250.214844 123.550781 240.765625 C 132.320312 245.265625 140.792969 250.0625 149.339844 254.9375 C 149.339844 264.457031 149.414062 273.902344 149.265625 283.351562 Z M 176.554688 232.746094 C 164.558594 227.347656 153.464844 220.300781 141.992188 213.925781 C 141.992188 201.257812 141.917969 188.511719 142.066406 175.84375 C 153.539062 182.140625 165.457031 187.914062 176.328125 195.257812 C 177.152344 207.703125 176.628906 220.300781 176.554688 232.746094 Z M 176.554688 232.746094 " fill-opacity="1" fill-rule="nonzero"/></g><path fill="#ff5757" d="M 38.234375 124.113281 C 37.785156 134.984375 37.183594 145.855469 38.160156 156.648438 C 47.753906 161.746094 57.050781 167.445312 66.796875 172.394531 C 66.871094 161.671875 66.871094 150.875 66.796875 140.15625 C 57.199219 134.832031 47.753906 129.433594 38.234375 124.113281 Z M 38.234375 124.113281 " fill-opacity="1" fill-rule="nonzero"/><path fill="#ff5757" d="M 0.222656 125.6875 C 0.148438 132.582031 0.148438 139.480469 0.0742188 146.378906 C 6.144531 149.902344 12.21875 153.425781 18.367188 156.800781 C 18.816406 149.828125 18.742188 142.855469 18.515625 135.882812 C 12.445312 132.507812 6.371094 129.058594 0.222656 125.6875 Z M 0.222656 125.6875 " fill-opacity="1" fill-rule="nonzero"/><path fill="#ff5757" d="M 65.296875 197.207031 C 51.203125 189.335938 37.257812 181.238281 23.015625 173.667969 C 22.640625 189.335938 22.113281 205.082031 23.164062 220.75 C 36.582031 229.597656 51.203125 236.566406 65.074219 244.816406 C 65.597656 228.921875 65.148438 213.101562 65.296875 197.207031 Z M 65.296875 197.207031 " fill-opacity="1" fill-rule="nonzero"/><g clip-path="url(#3416db46bd)"><path fill="#ff5757" d="M 373.800781 116.539062 L 233.605469 194.882812 L 232.933594 355.398438 L 374.925781 276.226562 Z M 373.800781 116.539062 " fill-opacity="1" fill-rule="nonzero"/></g></svg>