<svg xmlns="http://www.w3.org/2000/svg" xmlns:xlink="http://www.w3.org/1999/xlink" width="500" zoomAndPan="magnify" viewBox="0 0 375 374.999991" height="500" preserveAspectRatio="xMidYMid meet" version="1.0"><defs><g/><clipPath id="a28667f90e"><path d="M 32 150.074219 L 41 150.074219 L 41 155 L 32 155 Z M 32 150.074219 " clip-rule="nonzero"/></clipPath><clipPath id="e2c9cec218"><path d="M 13.386719 173 L 18 173 L 18 181 L 13.386719 181 Z M 13.386719 173 " clip-rule="nonzero"/></clipPath><clipPath id="5c25e554ea"><path d="M 65 171 L 96.636719 171 L 96.636719 225 L 65 225 Z M 65 171 " clip-rule="nonzero"/></clipPath></defs><path fill="#ff5757" d="M 34.238281 166.453125 C 37.257812 164.933594 40.148438 163.148438 43.117188 161.527344 C 40.164062 159.726562 37.175781 157.957031 34.070312 156.453125 C 30.996094 158.023438 27.992188 159.726562 25.054688 161.527344 C 27.40625 162.878906 29.8125 164.167969 32.148438 165.535156 C 32.835938 165.886719 33.484375 166.320312 34.238281 166.453125 Z M 34.238281 166.453125 " fill-opacity="1" fill-rule="nonzero"/><path fill="#ff5757" d="M 95.09375 169.625 C 84.824219 163.800781 74.492188 158.089844 64.222656 152.246094 C 59.980469 154.566406 55.773438 156.953125 51.550781 159.292969 C 51.25 159.507812 50.179688 159.890625 50.984375 160.257812 C 53.152344 161.613281 55.457031 162.746094 57.644531 164.066406 C 58.460938 164.449219 59.378906 165.269531 60.316406 164.734375 C 62.417969 163.730469 64.324219 162.363281 66.441406 161.410156 L 73.003906 165.316406 C 71.484375 166.351562 69.800781 167.105469 68.261719 168.105469 C 67.59375 168.457031 66.777344 169.175781 66.007812 168.65625 C 64.257812 167.773438 62.585938 166.722656 60.882812 165.753906 C 60.132812 165.335938 59.214844 165.335938 58.460938 165.734375 C 55.355469 167.4375 52.285156 169.207031 49.214844 170.960938 C 46.023438 169.410156 43.117188 167.253906 39.828125 165.9375 C 37.625 166.988281 35.554688 168.289062 33.417969 169.457031 C 33.167969 169.609375 32.316406 170.078125 33.050781 170.308594 C 43.167969 176.054688 53.355469 181.664062 63.472656 187.40625 C 63.871094 187.625 64.339844 187.789062 64.738281 187.472656 C 74.808594 181.796875 84.890625 176.152344 94.960938 170.492188 C 95.394531 170.445312 95.660156 169.808594 95.09375 169.625 Z M 61.382812 176.570312 L 56.34375 173.949219 L 61.417969 171.261719 L 66.394531 173.949219 Z M 61.382812 176.570312 " fill-opacity="1" fill-rule="nonzero"/><path fill="#ff5757" d="M 54.371094 155.082031 L 48.09375 151.695312 L 42.101562 155.21875 L 48.195312 158.640625 Z M 54.371094 155.082031 " fill-opacity="1" fill-rule="nonzero"/><g clip-path="url(#a28667f90e)"><path fill="#ff5757" d="M 40.664062 152.230469 L 36.722656 150.074219 L 32.535156 152.328125 L 36.675781 154.582031 Z M 40.664062 152.230469 " fill-opacity="1" fill-rule="nonzero"/></g><path fill="#ff5757" d="M 31.546875 171.664062 C 31.515625 175.101562 31.53125 178.542969 31.515625 181.964844 C 34.605469 183.734375 37.710938 185.488281 40.832031 187.191406 C 40.847656 191.179688 40.832031 195.1875 40.832031 199.175781 C 40.214844 198.808594 39.5625 198.460938 38.894531 198.109375 L 35.941406 196.472656 L 34.070312 195.4375 L 32.601562 194.621094 L 31.53125 194.035156 C 31.480469 198.425781 31.5 202.816406 31.515625 207.207031 C 42.082031 213.085938 52.601562 219.078125 63.1875 224.921875 C 63.1875 213.085938 63.171875 201.265625 63.1875 189.425781 C 52.6875 183.484375 42.117188 177.554688 31.546875 171.664062 Z M 46.625 208.84375 C 44.707031 207.910156 42.785156 206.925781 41.03125 205.6875 C 40.679688 203.601562 40.980469 201.464844 40.898438 199.359375 C 42.851562 200.363281 44.738281 201.429688 46.640625 202.515625 C 46.640625 204.636719 46.660156 206.742188 46.625 208.84375 Z M 52.703125 197.574219 C 50.03125 196.371094 47.558594 194.804688 45.003906 193.382812 C 45.003906 190.5625 44.988281 187.722656 45.023438 184.902344 C 47.578125 186.304688 50.230469 187.589844 52.652344 189.226562 C 52.835938 192 52.71875 194.804688 52.703125 197.574219 Z M 52.703125 197.574219 " fill-opacity="1" fill-rule="nonzero"/><path fill="#ff5757" d="M 21.898438 173.382812 C 21.796875 175.804688 21.664062 178.222656 21.882812 180.628906 C 24.019531 181.765625 26.089844 183.03125 28.257812 184.132812 C 28.277344 181.746094 28.277344 179.34375 28.257812 176.957031 C 26.121094 175.769531 24.019531 174.566406 21.898438 173.382812 Z M 21.898438 173.382812 " fill-opacity="1" fill-rule="nonzero"/><g clip-path="url(#e2c9cec218)"><path fill="#ff5757" d="M 13.433594 173.734375 C 13.417969 175.269531 13.417969 176.804688 13.398438 178.339844 C 14.753906 179.125 16.105469 179.910156 17.472656 180.660156 C 17.574219 179.109375 17.558594 177.554688 17.507812 176.003906 C 16.15625 175.253906 14.804688 174.484375 13.433594 173.734375 Z M 13.433594 173.734375 " fill-opacity="1" fill-rule="nonzero"/></g><path fill="#ff5757" d="M 27.925781 189.660156 C 24.785156 187.90625 21.679688 186.105469 18.507812 184.417969 C 18.425781 187.90625 18.308594 191.414062 18.542969 194.902344 C 21.53125 196.875 24.785156 198.425781 27.875 200.261719 C 27.992188 196.722656 27.890625 193.199219 27.925781 189.660156 Z M 27.925781 189.660156 " fill-opacity="1" fill-rule="nonzero"/><g clip-path="url(#5c25e554ea)"><path fill="#ff5757" d="M 96.628906 171.695312 L 65.40625 189.144531 L 65.257812 224.890625 L 96.878906 207.257812 Z M 96.628906 171.695312 " fill-opacity="1" fill-rule="nonzero"/></g><g fill="#ffffff" fill-opacity="1"><g transform="translate(102.510922, 200.899981)"><g><path d="M 1.4375 -24.234375 C 1.914062 -24.203125 2.539062 -24.175781 3.3125 -24.15625 C 4.09375 -24.132812 4.859375 -24.125 5.609375 -24.125 C 6.679688 -24.125 7.707031 -24.132812 8.6875 -24.15625 C 9.664062 -24.175781 10.363281 -24.1875 10.78125 -24.1875 C 13.539062 -24.1875 15.601562 -23.554688 16.96875 -22.296875 C 18.34375 -21.046875 19.03125 -19.429688 19.03125 -17.453125 C 19.03125 -16.628906 18.890625 -15.765625 18.609375 -14.859375 C 18.335938 -13.960938 17.863281 -13.128906 17.1875 -12.359375 C 16.519531 -11.597656 15.601562 -10.976562 14.4375 -10.5 C 13.269531 -10.019531 11.800781 -9.78125 10.03125 -9.78125 L 6.734375 -9.78125 L 6.734375 -10.46875 L 9.6875 -10.46875 C 11.300781 -10.46875 12.535156 -10.773438 13.390625 -11.390625 C 14.253906 -12.003906 14.835938 -12.8125 15.140625 -13.8125 C 15.453125 -14.820312 15.609375 -15.910156 15.609375 -17.078125 C 15.609375 -19.242188 15.175781 -20.863281 14.3125 -21.9375 C 13.457031 -23.007812 11.992188 -23.546875 9.921875 -23.546875 C 8.867188 -23.546875 8.179688 -23.347656 7.859375 -22.953125 C 7.546875 -22.566406 7.390625 -21.78125 7.390625 -20.59375 L 7.390625 -3.625 C 7.390625 -2.800781 7.472656 -2.179688 7.640625 -1.765625 C 7.816406 -1.359375 8.15625 -1.085938 8.65625 -0.953125 C 9.15625 -0.816406 9.882812 -0.726562 10.84375 -0.6875 L 10.84375 0 C 10.25 -0.0390625 9.492188 -0.0664062 8.578125 -0.078125 C 7.671875 -0.0976562 6.75 -0.109375 5.8125 -0.109375 C 4.925781 -0.109375 4.09375 -0.0976562 3.3125 -0.078125 C 2.539062 -0.0664062 1.914062 -0.0390625 1.4375 0 L 1.4375 -0.6875 C 2.207031 -0.726562 2.789062 -0.816406 3.1875 -0.953125 C 3.59375 -1.085938 3.863281 -1.359375 4 -1.765625 C 4.132812 -2.179688 4.203125 -2.800781 4.203125 -3.625 L 4.203125 -20.59375 C 4.203125 -21.4375 4.132812 -22.054688 4 -22.453125 C 3.863281 -22.859375 3.59375 -23.132812 3.1875 -23.28125 C 2.789062 -23.4375 2.207031 -23.523438 1.4375 -23.546875 Z M 1.4375 -24.234375 "/></g></g></g><g fill="#ffffff" fill-opacity="1"><g transform="translate(122.522082, 200.899981)"><g><path d="M 11.640625 -18.109375 C 12.253906 -18.109375 12.796875 -17.976562 13.265625 -17.71875 C 13.734375 -17.46875 14.097656 -17.144531 14.359375 -16.75 C 14.617188 -16.351562 14.75 -15.90625 14.75 -15.40625 C 14.75 -14.832031 14.570312 -14.328125 14.21875 -13.890625 C 13.863281 -13.460938 13.390625 -13.25 12.796875 -13.25 C 12.316406 -13.25 11.894531 -13.398438 11.53125 -13.703125 C 11.164062 -14.015625 10.984375 -14.453125 10.984375 -15.015625 C 10.984375 -15.453125 11.101562 -15.820312 11.34375 -16.125 C 11.582031 -16.4375 11.847656 -16.6875 12.140625 -16.875 C 11.984375 -17.101562 11.742188 -17.21875 11.421875 -17.21875 C 10.722656 -17.21875 10.078125 -17.003906 9.484375 -16.578125 C 8.890625 -16.160156 8.382812 -15.617188 7.96875 -14.953125 C 7.5625 -14.296875 7.242188 -13.59375 7.015625 -12.84375 C 6.785156 -12.101562 6.671875 -11.414062 6.671875 -10.78125 L 6.671875 -3.53125 C 6.671875 -2.40625 6.992188 -1.65625 7.640625 -1.28125 C 8.296875 -0.90625 9.179688 -0.71875 10.296875 -0.71875 L 10.296875 0 C 9.773438 -0.0195312 9.035156 -0.046875 8.078125 -0.078125 C 7.117188 -0.117188 6.101562 -0.140625 5.03125 -0.140625 C 4.25 -0.140625 3.476562 -0.117188 2.71875 -0.078125 C 1.957031 -0.046875 1.382812 -0.0195312 1 0 L 1 -0.71875 C 1.925781 -0.71875 2.585938 -0.890625 2.984375 -1.234375 C 3.390625 -1.578125 3.59375 -2.226562 3.59375 -3.1875 L 3.59375 -13.890625 C 3.59375 -14.921875 3.410156 -15.679688 3.046875 -16.171875 C 2.679688 -16.660156 2 -16.90625 1 -16.90625 L 1 -17.625 C 1.726562 -17.550781 2.429688 -17.515625 3.109375 -17.515625 C 3.773438 -17.515625 4.410156 -17.554688 5.015625 -17.640625 C 5.617188 -17.722656 6.171875 -17.84375 6.671875 -18 L 6.671875 -13.71875 C 6.921875 -14.382812 7.28125 -15.050781 7.75 -15.71875 C 8.21875 -16.394531 8.78125 -16.960938 9.4375 -17.421875 C 10.101562 -17.878906 10.835938 -18.109375 11.640625 -18.109375 Z M 11.640625 -18.109375 "/></g></g></g><g fill="#ffffff" fill-opacity="1"><g transform="translate(137.744245, 200.899981)"><g><path d="M 9.375 -18.109375 C 10.832031 -18.109375 12.144531 -17.785156 13.3125 -17.140625 C 14.476562 -16.503906 15.40625 -15.5 16.09375 -14.125 C 16.789062 -12.757812 17.140625 -10.984375 17.140625 -8.796875 C 17.140625 -6.609375 16.789062 -4.832031 16.09375 -3.46875 C 15.40625 -2.113281 14.476562 -1.113281 13.3125 -0.46875 C 12.144531 0.164062 10.832031 0.484375 9.375 0.484375 C 7.9375 0.484375 6.628906 0.164062 5.453125 -0.46875 C 4.285156 -1.113281 3.351562 -2.113281 2.65625 -3.46875 C 1.957031 -4.832031 1.609375 -6.609375 1.609375 -8.796875 C 1.609375 -10.984375 1.957031 -12.757812 2.65625 -14.125 C 3.351562 -15.5 4.285156 -16.503906 5.453125 -17.140625 C 6.628906 -17.785156 7.9375 -18.109375 9.375 -18.109375 Z M 9.375 -17.421875 C 8.070312 -17.421875 7.003906 -16.742188 6.171875 -15.390625 C 5.335938 -14.046875 4.921875 -11.847656 4.921875 -8.796875 C 4.921875 -5.734375 5.335938 -3.535156 6.171875 -2.203125 C 7.003906 -0.867188 8.070312 -0.203125 9.375 -0.203125 C 10.675781 -0.203125 11.742188 -0.867188 12.578125 -2.203125 C 13.410156 -3.535156 13.828125 -5.734375 13.828125 -8.796875 C 13.828125 -11.847656 13.410156 -14.046875 12.578125 -15.390625 C 11.742188 -16.742188 10.675781 -17.421875 9.375 -17.421875 Z M 9.375 -17.421875 "/></g></g></g><g fill="#ffffff" fill-opacity="1"><g transform="translate(156.489735, 200.899981)"><g><path d="M 12.28125 -18.109375 C 13.082031 -18.109375 13.78125 -17.992188 14.375 -17.765625 C 14.96875 -17.535156 15.457031 -17.210938 15.84375 -16.796875 C 16.28125 -16.335938 16.578125 -15.742188 16.734375 -15.015625 C 16.890625 -14.285156 16.96875 -13.382812 16.96875 -12.3125 L 16.96875 -3.1875 C 16.96875 -2.226562 17.164062 -1.578125 17.5625 -1.234375 C 17.96875 -0.890625 18.640625 -0.71875 19.578125 -0.71875 L 19.578125 0 C 19.179688 -0.0195312 18.582031 -0.046875 17.78125 -0.078125 C 16.988281 -0.117188 16.21875 -0.140625 15.46875 -0.140625 C 14.71875 -0.140625 13.984375 -0.117188 13.265625 -0.078125 C 12.546875 -0.046875 12.003906 -0.0195312 11.640625 0 L 11.640625 -0.71875 C 12.453125 -0.71875 13.03125 -0.890625 13.375 -1.234375 C 13.71875 -1.578125 13.890625 -2.226562 13.890625 -3.1875 L 13.890625 -13.078125 C 13.890625 -13.773438 13.84375 -14.421875 13.75 -15.015625 C 13.664062 -15.609375 13.441406 -16.085938 13.078125 -16.453125 C 12.710938 -16.816406 12.117188 -17 11.296875 -17 C 10.398438 -17 9.601562 -16.722656 8.90625 -16.171875 C 8.21875 -15.628906 7.671875 -14.882812 7.265625 -13.9375 C 6.867188 -13 6.671875 -11.945312 6.671875 -10.78125 L 6.671875 -3.1875 C 6.671875 -2.226562 6.84375 -1.578125 7.1875 -1.234375 C 7.53125 -0.890625 8.113281 -0.71875 8.9375 -0.71875 L 8.9375 0 C 8.570312 -0.0195312 8.03125 -0.046875 7.3125 -0.078125 C 6.59375 -0.117188 5.851562 -0.140625 5.09375 -0.140625 C 4.34375 -0.140625 3.566406 -0.117188 2.765625 -0.078125 C 1.972656 -0.046875 1.382812 -0.0195312 1 0 L 1 -0.71875 C 1.925781 -0.71875 2.585938 -0.890625 2.984375 -1.234375 C 3.390625 -1.578125 3.59375 -2.226562 3.59375 -3.1875 L 3.59375 -13.890625 C 3.59375 -14.921875 3.410156 -15.679688 3.046875 -16.171875 C 2.679688 -16.660156 2 -16.90625 1 -16.90625 L 1 -17.625 C 1.726562 -17.550781 2.429688 -17.515625 3.109375 -17.515625 C 3.773438 -17.515625 4.410156 -17.554688 5.015625 -17.640625 C 5.617188 -17.722656 6.171875 -17.84375 6.671875 -18 L 6.671875 -13.96875 C 7.265625 -15.445312 8.070312 -16.503906 9.09375 -17.140625 C 10.125 -17.785156 11.1875 -18.109375 12.28125 -18.109375 Z M 22.578125 -18.109375 C 23.378906 -18.109375 24.078125 -17.992188 24.671875 -17.765625 C 25.265625 -17.535156 25.753906 -17.210938 26.140625 -16.796875 C 26.578125 -16.335938 26.875 -15.742188 27.03125 -15.015625 C 27.1875 -14.285156 27.265625 -13.382812 27.265625 -12.3125 L 27.265625 -3.1875 C 27.265625 -2.226562 27.460938 -1.578125 27.859375 -1.234375 C 28.265625 -0.890625 28.9375 -0.71875 29.875 -0.71875 L 29.875 0 C 29.488281 -0.0195312 28.894531 -0.046875 28.09375 -0.078125 C 27.289062 -0.117188 26.515625 -0.140625 25.765625 -0.140625 C 25.015625 -0.140625 24.28125 -0.117188 23.5625 -0.078125 C 22.84375 -0.046875 22.300781 -0.0195312 21.9375 0 L 21.9375 -0.71875 C 22.757812 -0.71875 23.335938 -0.890625 23.671875 -1.234375 C 24.015625 -1.578125 24.1875 -2.226562 24.1875 -3.1875 L 24.1875 -13.078125 C 24.1875 -13.773438 24.140625 -14.421875 24.046875 -15.015625 C 23.960938 -15.609375 23.738281 -16.085938 23.375 -16.453125 C 23.007812 -16.816406 22.414062 -17 21.59375 -17 C 20.695312 -17 19.898438 -16.722656 19.203125 -16.171875 C 18.515625 -15.628906 17.96875 -14.890625 17.5625 -13.953125 C 17.164062 -13.023438 16.96875 -11.976562 16.96875 -10.8125 L 16.875 -14 C 17.488281 -15.570312 18.316406 -16.648438 19.359375 -17.234375 C 20.410156 -17.816406 21.484375 -18.109375 22.578125 -18.109375 Z M 22.578125 -18.109375 "/></g></g></g><g fill="#ffffff" fill-opacity="1"><g transform="translate(186.865649, 200.899981)"><g><path d="M 6.4375 -18 L 6.4375 3.015625 C 6.4375 3.992188 6.722656 4.644531 7.296875 4.96875 C 7.878906 5.300781 8.6875 5.46875 9.71875 5.46875 L 9.71875 6.1875 C 9.21875 6.164062 8.519531 6.140625 7.625 6.109375 C 6.738281 6.078125 5.796875 6.0625 4.796875 6.0625 C 4.085938 6.0625 3.382812 6.078125 2.6875 6.109375 C 1.988281 6.140625 1.457031 6.164062 1.09375 6.1875 L 1.09375 5.46875 C 1.914062 5.46875 2.5 5.316406 2.84375 5.015625 C 3.1875 4.722656 3.359375 4.171875 3.359375 3.359375 L 3.359375 -13.890625 C 3.359375 -14.921875 3.175781 -15.679688 2.8125 -16.171875 C 2.445312 -16.660156 1.757812 -16.90625 0.75 -16.90625 L 0.75 -17.625 C 1.476562 -17.550781 2.1875 -17.515625 2.875 -17.515625 C 3.53125 -17.515625 4.160156 -17.554688 4.765625 -17.640625 C 5.378906 -17.722656 5.9375 -17.84375 6.4375 -18 Z M 11.90625 -18.109375 C 13.113281 -18.109375 14.195312 -17.78125 15.15625 -17.125 C 16.113281 -16.476562 16.867188 -15.523438 17.421875 -14.265625 C 17.984375 -13.015625 18.265625 -11.460938 18.265625 -9.609375 C 18.265625 -8.378906 18.117188 -7.164062 17.828125 -5.96875 C 17.535156 -4.769531 17.070312 -3.6875 16.4375 -2.71875 C 15.8125 -1.75 15.003906 -0.972656 14.015625 -0.390625 C 13.023438 0.191406 11.832031 0.484375 10.4375 0.484375 C 9.363281 0.484375 8.429688 0.234375 7.640625 -0.265625 C 6.859375 -0.773438 6.332031 -1.382812 6.0625 -2.09375 L 6.40625 -2.5625 C 6.71875 -1.925781 7.175781 -1.390625 7.78125 -0.953125 C 8.382812 -0.523438 9.144531 -0.3125 10.0625 -0.3125 C 11.34375 -0.3125 12.332031 -0.707031 13.03125 -1.5 C 13.738281 -2.300781 14.234375 -3.367188 14.515625 -4.703125 C 14.804688 -6.035156 14.953125 -7.515625 14.953125 -9.140625 C 14.953125 -10.960938 14.800781 -12.453125 14.5 -13.609375 C 14.207031 -14.773438 13.765625 -15.644531 13.171875 -16.21875 C 12.578125 -16.789062 11.847656 -17.078125 10.984375 -17.078125 C 9.867188 -17.078125 8.851562 -16.613281 7.9375 -15.6875 C 7.019531 -14.757812 6.4375 -13.363281 6.1875 -11.5 L 5.78125 -11.984375 C 6.03125 -13.921875 6.71875 -15.425781 7.84375 -16.5 C 8.976562 -17.570312 10.332031 -18.109375 11.90625 -18.109375 Z M 11.90625 -18.109375 "/></g></g></g><g fill="#ffffff" fill-opacity="1"><g transform="translate(206.739973, 200.899981)"><g><path d="M 6.5 -23.296875 L 6.5 -17.59375 L 11.5625 -17.59375 L 11.5625 -16.90625 L 6.5 -16.90625 L 6.5 -3.65625 C 6.5 -2.582031 6.691406 -1.828125 7.078125 -1.390625 C 7.472656 -0.960938 8.007812 -0.75 8.6875 -0.75 C 9.375 -0.75 9.96875 -1.023438 10.46875 -1.578125 C 10.96875 -2.140625 11.398438 -3.085938 11.765625 -4.421875 L 12.453125 -4.25 C 12.222656 -2.925781 11.769531 -1.804688 11.09375 -0.890625 C 10.425781 0.0234375 9.394531 0.484375 8 0.484375 C 7.226562 0.484375 6.59375 0.382812 6.09375 0.1875 C 5.59375 -0.0078125 5.144531 -0.289062 4.75 -0.65625 C 4.25 -1.175781 3.898438 -1.800781 3.703125 -2.53125 C 3.515625 -3.257812 3.421875 -4.226562 3.421875 -5.4375 L 3.421875 -16.90625 L 0.140625 -16.90625 L 0.140625 -17.59375 L 3.421875 -17.59375 L 3.421875 -22.828125 C 3.992188 -22.847656 4.539062 -22.890625 5.0625 -22.953125 C 5.582031 -23.023438 6.0625 -23.140625 6.5 -23.296875 Z M 6.5 -23.296875 "/></g></g></g><g fill="#ffffff" fill-opacity="1"><g transform="translate(218.849286, 200.899981)"><g><path d="M 1.4375 -24.234375 C 1.914062 -24.203125 2.539062 -24.175781 3.3125 -24.15625 C 4.09375 -24.132812 4.859375 -24.125 5.609375 -24.125 C 6.679688 -24.125 7.707031 -24.132812 8.6875 -24.15625 C 9.664062 -24.175781 10.363281 -24.1875 10.78125 -24.1875 C 13.175781 -24.1875 14.976562 -23.6875 16.1875 -22.6875 C 17.394531 -21.6875 18 -20.398438 18 -18.828125 C 18 -18.023438 17.832031 -17.238281 17.5 -16.46875 C 17.164062 -15.707031 16.617188 -15.015625 15.859375 -14.390625 C 15.097656 -13.765625 14.078125 -13.253906 12.796875 -12.859375 L 12.796875 -12.796875 C 14.597656 -12.566406 16.003906 -12.140625 17.015625 -11.515625 C 18.035156 -10.890625 18.75 -10.15625 19.15625 -9.3125 C 19.570312 -8.46875 19.78125 -7.578125 19.78125 -6.640625 C 19.78125 -5.335938 19.453125 -4.191406 18.796875 -3.203125 C 18.148438 -2.210938 17.207031 -1.429688 15.96875 -0.859375 C 14.738281 -0.285156 13.269531 0 11.5625 0 C 11.0625 0 10.304688 -0.015625 9.296875 -0.046875 C 8.296875 -0.0859375 7.09375 -0.109375 5.6875 -0.109375 C 4.882812 -0.109375 4.09375 -0.0976562 3.3125 -0.078125 C 2.539062 -0.0664062 1.914062 -0.0390625 1.4375 0 L 1.4375 -0.6875 C 2.207031 -0.726562 2.789062 -0.816406 3.1875 -0.953125 C 3.59375 -1.085938 3.863281 -1.359375 4 -1.765625 C 4.132812 -2.179688 4.203125 -2.800781 4.203125 -3.625 L 4.203125 -20.59375 C 4.203125 -21.4375 4.132812 -22.054688 4 -22.453125 C 3.863281 -22.859375 3.59375 -23.132812 3.1875 -23.28125 C 2.789062 -23.4375 2.207031 -23.523438 1.4375 -23.546875 Z M 9.921875 -23.546875 C 8.867188 -23.546875 8.179688 -23.347656 7.859375 -22.953125 C 7.546875 -22.566406 7.390625 -21.78125 7.390625 -20.59375 L 7.390625 -3.625 C 7.390625 -2.820312 7.457031 -2.21875 7.59375 -1.8125 C 7.726562 -1.40625 7.976562 -1.128906 8.34375 -0.984375 C 8.707031 -0.847656 9.242188 -0.78125 9.953125 -0.78125 C 12.191406 -0.78125 13.816406 -1.300781 14.828125 -2.34375 C 15.847656 -3.382812 16.359375 -4.863281 16.359375 -6.78125 C 16.359375 -8.53125 15.882812 -9.882812 14.9375 -10.84375 C 13.988281 -11.800781 12.429688 -12.28125 10.265625 -12.28125 L 6.734375 -12.28125 C 6.734375 -12.28125 6.734375 -12.375 6.734375 -12.5625 C 6.734375 -12.757812 6.734375 -12.859375 6.734375 -12.859375 L 9.6875 -12.859375 C 11.03125 -12.859375 12.066406 -13.113281 12.796875 -13.625 C 13.523438 -14.144531 14.023438 -14.832031 14.296875 -15.6875 C 14.578125 -16.539062 14.71875 -17.457031 14.71875 -18.4375 C 14.71875 -20.125 14.34375 -21.394531 13.59375 -22.25 C 12.851562 -23.113281 11.628906 -23.546875 9.921875 -23.546875 Z M 9.921875 -23.546875 "/></g></g></g><g fill="#ffffff" fill-opacity="1"><g transform="translate(240.160312, 200.899981)"><g><path d="M 16.53125 -18 L 16.53125 -3.703125 C 16.53125 -2.671875 16.71875 -1.910156 17.09375 -1.421875 C 17.46875 -0.929688 18.144531 -0.6875 19.125 -0.6875 L 19.125 0.03125 C 18.414062 -0.03125 17.707031 -0.0625 17 -0.0625 C 16.34375 -0.0625 15.710938 -0.03125 15.109375 0.03125 C 14.503906 0.101562 13.953125 0.226562 13.453125 0.40625 L 13.453125 -3.625 C 12.878906 -2.144531 12.070312 -1.085938 11.03125 -0.453125 C 10 0.171875 8.9375 0.484375 7.84375 0.484375 C 7.039062 0.484375 6.34375 0.367188 5.75 0.140625 C 5.15625 -0.0859375 4.664062 -0.410156 4.28125 -0.828125 C 3.84375 -1.273438 3.539062 -1.863281 3.375 -2.59375 C 3.21875 -3.332031 3.140625 -4.234375 3.140625 -5.296875 L 3.140625 -13.890625 C 3.140625 -14.921875 2.957031 -15.679688 2.59375 -16.171875 C 2.226562 -16.660156 1.546875 -16.90625 0.546875 -16.90625 L 0.546875 -17.625 C 1.273438 -17.550781 1.984375 -17.515625 2.671875 -17.515625 C 3.328125 -17.515625 3.957031 -17.554688 4.5625 -17.640625 C 5.164062 -17.722656 5.722656 -17.84375 6.234375 -18 L 6.234375 -4.546875 C 6.234375 -3.835938 6.273438 -3.1875 6.359375 -2.59375 C 6.453125 -2.007812 6.679688 -1.53125 7.046875 -1.15625 C 7.410156 -0.789062 8.003906 -0.609375 8.828125 -0.609375 C 9.710938 -0.609375 10.503906 -0.882812 11.203125 -1.4375 C 11.898438 -1.988281 12.445312 -2.726562 12.84375 -3.65625 C 13.25 -4.59375 13.453125 -5.644531 13.453125 -6.8125 L 13.453125 -13.890625 C 13.453125 -14.921875 13.269531 -15.679688 12.90625 -16.171875 C 12.539062 -16.660156 11.851562 -16.90625 10.84375 -16.90625 L 10.84375 -17.625 C 11.570312 -17.550781 12.28125 -17.515625 12.96875 -17.515625 C 13.632812 -17.515625 14.269531 -17.554688 14.875 -17.640625 C 15.476562 -17.722656 16.03125 -17.84375 16.53125 -18 Z M 16.53125 -18 "/></g></g></g><g fill="#ffffff" fill-opacity="1"><g transform="translate(260.034635, 200.899981)"><g><path d="M 4.890625 -26.171875 C 5.484375 -26.171875 5.992188 -25.953125 6.421875 -25.515625 C 6.859375 -25.085938 7.078125 -24.578125 7.078125 -23.984375 C 7.078125 -23.390625 6.859375 -22.875 6.421875 -22.4375 C 5.992188 -22.007812 5.484375 -21.796875 4.890625 -21.796875 C 4.296875 -21.796875 3.78125 -22.007812 3.34375 -22.4375 C 2.914062 -22.875 2.703125 -23.390625 2.703125 -23.984375 C 2.703125 -24.578125 2.914062 -25.085938 3.34375 -25.515625 C 3.78125 -25.953125 4.296875 -26.171875 4.890625 -26.171875 Z M 6.671875 -18 L 6.671875 -3.1875 C 6.671875 -2.226562 6.867188 -1.578125 7.265625 -1.234375 C 7.671875 -0.890625 8.335938 -0.71875 9.265625 -0.71875 L 9.265625 0 C 8.878906 -0.0195312 8.289062 -0.046875 7.5 -0.078125 C 6.71875 -0.117188 5.929688 -0.140625 5.140625 -0.140625 C 4.359375 -0.140625 3.566406 -0.117188 2.765625 -0.078125 C 1.972656 -0.046875 1.382812 -0.0195312 1 0 L 1 -0.71875 C 1.925781 -0.71875 2.585938 -0.890625 2.984375 -1.234375 C 3.390625 -1.578125 3.59375 -2.226562 3.59375 -3.1875 L 3.59375 -13.890625 C 3.59375 -14.921875 3.410156 -15.679688 3.046875 -16.171875 C 2.679688 -16.660156 2 -16.90625 1 -16.90625 L 1 -17.625 C 1.726562 -17.550781 2.429688 -17.515625 3.109375 -17.515625 C 3.773438 -17.515625 4.410156 -17.554688 5.015625 -17.640625 C 5.617188 -17.722656 6.171875 -17.84375 6.671875 -18 Z M 6.671875 -18 "/></g></g></g><g fill="#ffffff" fill-opacity="1"><g transform="translate(270.057313, 200.899981)"><g><path d="M 6.4375 -26.828125 L 6.4375 -3.1875 C 6.4375 -2.226562 6.632812 -1.578125 7.03125 -1.234375 C 7.425781 -0.890625 8.09375 -0.71875 9.03125 -0.71875 L 9.03125 0 C 8.644531 -0.0195312 8.054688 -0.046875 7.265625 -0.078125 C 6.484375 -0.117188 5.691406 -0.140625 4.890625 -0.140625 C 4.117188 -0.140625 3.332031 -0.117188 2.53125 -0.078125 C 1.726562 -0.046875 1.132812 -0.0195312 0.75 0 L 0.75 -0.71875 C 1.6875 -0.71875 2.351562 -0.890625 2.75 -1.234375 C 3.15625 -1.578125 3.359375 -2.226562 3.359375 -3.1875 L 3.359375 -22.71875 C 3.359375 -23.75 3.175781 -24.507812 2.8125 -25 C 2.445312 -25.488281 1.757812 -25.734375 0.75 -25.734375 L 0.75 -26.453125 C 1.476562 -26.378906 2.1875 -26.34375 2.875 -26.34375 C 3.53125 -26.34375 4.160156 -26.382812 4.765625 -26.46875 C 5.378906 -26.550781 5.9375 -26.671875 6.4375 -26.828125 Z M 6.4375 -26.828125 "/></g></g></g><g fill="#ffffff" fill-opacity="1"><g transform="translate(279.840546, 200.899981)"><g><path d="M 16.5625 -26.828125 L 16.5625 -3.734375 C 16.5625 -2.703125 16.75 -1.941406 17.125 -1.453125 C 17.5 -0.960938 18.175781 -0.71875 19.15625 -0.71875 L 19.15625 0 C 18.457031 -0.0703125 17.753906 -0.109375 17.046875 -0.109375 C 16.378906 -0.109375 15.742188 -0.0703125 15.140625 0 C 14.535156 0.0703125 13.984375 0.195312 13.484375 0.375 L 13.484375 -22.71875 C 13.484375 -23.75 13.300781 -24.507812 12.9375 -25 C 12.570312 -25.488281 11.882812 -25.734375 10.875 -25.734375 L 10.875 -26.453125 C 11.613281 -26.378906 12.320312 -26.34375 13 -26.34375 C 13.664062 -26.34375 14.300781 -26.382812 14.90625 -26.46875 C 15.507812 -26.550781 16.0625 -26.671875 16.5625 -26.828125 Z M 9.375 -18.109375 C 10.375 -18.109375 11.3125 -17.867188 12.1875 -17.390625 C 13.070312 -16.910156 13.664062 -16.085938 13.96875 -14.921875 L 13.515625 -14.578125 C 13.191406 -15.535156 12.691406 -16.226562 12.015625 -16.65625 C 11.347656 -17.09375 10.5625 -17.3125 9.65625 -17.3125 C 8.300781 -17.3125 7.171875 -16.613281 6.265625 -15.21875 C 5.367188 -13.832031 4.9375 -11.691406 4.96875 -8.796875 C 4.96875 -6.941406 5.140625 -5.40625 5.484375 -4.1875 C 5.835938 -2.96875 6.363281 -2.054688 7.0625 -1.453125 C 7.757812 -0.847656 8.609375 -0.546875 9.609375 -0.546875 C 10.566406 -0.546875 11.429688 -0.957031 12.203125 -1.78125 C 12.984375 -2.601562 13.457031 -3.8125 13.625 -5.40625 L 14.03125 -4.921875 C 13.84375 -3.191406 13.285156 -1.859375 12.359375 -0.921875 C 11.441406 0.015625 10.195312 0.484375 8.625 0.484375 C 7.207031 0.484375 5.96875 0.140625 4.90625 -0.546875 C 3.84375 -1.234375 3.03125 -2.257812 2.46875 -3.625 C 1.914062 -5 1.640625 -6.722656 1.640625 -8.796875 C 1.640625 -10.867188 2 -12.59375 2.71875 -13.96875 C 3.4375 -15.351562 4.382812 -16.390625 5.5625 -17.078125 C 6.738281 -17.765625 8.007812 -18.109375 9.375 -18.109375 Z M 9.375 -18.109375 "/></g></g></g><g fill="#ffffff" fill-opacity="1"><g transform="translate(299.714858, 200.899981)"><g><path d="M 9.3125 -18.109375 C 11.3125 -18.109375 12.875 -17.492188 14 -16.265625 C 15.132812 -15.046875 15.703125 -13.148438 15.703125 -10.578125 L 3.625 -10.578125 L 3.59375 -11.21875 L 12.421875 -11.21875 C 12.460938 -12.34375 12.367188 -13.375 12.140625 -14.3125 C 11.921875 -15.257812 11.5625 -16.019531 11.0625 -16.59375 C 10.570312 -17.164062 9.941406 -17.453125 9.171875 -17.453125 C 8.117188 -17.453125 7.1875 -16.925781 6.375 -15.875 C 5.570312 -14.820312 5.085938 -13.15625 4.921875 -10.875 L 5.03125 -10.75 C 4.988281 -10.40625 4.953125 -10.023438 4.921875 -9.609375 C 4.898438 -9.203125 4.890625 -8.796875 4.890625 -8.390625 C 4.890625 -6.835938 5.140625 -5.5 5.640625 -4.375 C 6.148438 -3.257812 6.804688 -2.410156 7.609375 -1.828125 C 8.421875 -1.242188 9.257812 -0.953125 10.125 -0.953125 C 10.8125 -0.953125 11.460938 -1.0625 12.078125 -1.28125 C 12.691406 -1.5 13.257812 -1.859375 13.78125 -2.359375 C 14.3125 -2.859375 14.769531 -3.53125 15.15625 -4.375 L 15.84375 -4.109375 C 15.59375 -3.359375 15.179688 -2.628906 14.609375 -1.921875 C 14.035156 -1.210938 13.316406 -0.632812 12.453125 -0.1875 C 11.585938 0.257812 10.582031 0.484375 9.4375 0.484375 C 7.800781 0.484375 6.394531 0.109375 5.21875 -0.640625 C 4.039062 -1.398438 3.140625 -2.445312 2.515625 -3.78125 C 1.890625 -5.113281 1.578125 -6.648438 1.578125 -8.390625 C 1.578125 -10.390625 1.894531 -12.113281 2.53125 -13.5625 C 3.164062 -15.007812 4.066406 -16.128906 5.234375 -16.921875 C 6.398438 -17.710938 7.757812 -18.109375 9.3125 -18.109375 Z M 9.3125 -18.109375 "/></g></g></g><g fill="#ffffff" fill-opacity="1"><g transform="translate(317.023657, 200.899981)"><g><path d="M 11.640625 -18.109375 C 12.253906 -18.109375 12.796875 -17.976562 13.265625 -17.71875 C 13.734375 -17.46875 14.097656 -17.144531 14.359375 -16.75 C 14.617188 -16.351562 14.75 -15.90625 14.75 -15.40625 C 14.75 -14.832031 14.570312 -14.328125 14.21875 -13.890625 C 13.863281 -13.460938 13.390625 -13.25 12.796875 -13.25 C 12.316406 -13.25 11.894531 -13.398438 11.53125 -13.703125 C 11.164062 -14.015625 10.984375 -14.453125 10.984375 -15.015625 C 10.984375 -15.453125 11.101562 -15.820312 11.34375 -16.125 C 11.582031 -16.4375 11.847656 -16.6875 12.140625 -16.875 C 11.984375 -17.101562 11.742188 -17.21875 11.421875 -17.21875 C 10.722656 -17.21875 10.078125 -17.003906 9.484375 -16.578125 C 8.890625 -16.160156 8.382812 -15.617188 7.96875 -14.953125 C 7.5625 -14.296875 7.242188 -13.59375 7.015625 -12.84375 C 6.785156 -12.101562 6.671875 -11.414062 6.671875 -10.78125 L 6.671875 -3.53125 C 6.671875 -2.40625 6.992188 -1.65625 7.640625 -1.28125 C 8.296875 -0.90625 9.179688 -0.71875 10.296875 -0.71875 L 10.296875 0 C 9.773438 -0.0195312 9.035156 -0.046875 8.078125 -0.078125 C 7.117188 -0.117188 6.101562 -0.140625 5.03125 -0.140625 C 4.25 -0.140625 3.476562 -0.117188 2.71875 -0.078125 C 1.957031 -0.046875 1.382812 -0.0195312 1 0 L 1 -0.71875 C 1.925781 -0.71875 2.585938 -0.890625 2.984375 -1.234375 C 3.390625 -1.578125 3.59375 -2.226562 3.59375 -3.1875 L 3.59375 -13.890625 C 3.59375 -14.921875 3.410156 -15.679688 3.046875 -16.171875 C 2.679688 -16.660156 2 -16.90625 1 -16.90625 L 1 -17.625 C 1.726562 -17.550781 2.429688 -17.515625 3.109375 -17.515625 C 3.773438 -17.515625 4.410156 -17.554688 5.015625 -17.640625 C 5.617188 -17.722656 6.171875 -17.84375 6.671875 -18 L 6.671875 -13.71875 C 6.921875 -14.382812 7.28125 -15.050781 7.75 -15.71875 C 8.21875 -16.394531 8.78125 -16.960938 9.4375 -17.421875 C 10.101562 -17.878906 10.835938 -18.109375 11.640625 -18.109375 Z M 11.640625 -18.109375 "/></g></g></g></svg>