<svg xmlns="http://www.w3.org/2000/svg" xmlns:xlink="http://www.w3.org/1999/xlink" width="500" zoomAndPan="magnify" viewBox="0 0 375 374.999991" height="500" preserveAspectRatio="xMidYMid meet" version="1.0"><defs><clipPath id="488837c472"><path d="M 20.457031 20.457031 L 354.542969 20.457031 L 354.542969 354.542969 L 20.457031 354.542969 Z M 20.457031 20.457031 " clip-rule="nonzero"/></clipPath><clipPath id="c50bc45c47"><path d="M 187.5 20.457031 C 95.246094 20.457031 20.457031 95.246094 20.457031 187.5 C 20.457031 279.753906 95.246094 354.542969 187.5 354.542969 C 279.753906 354.542969 354.542969 279.753906 354.542969 187.5 C 354.542969 95.246094 279.753906 20.457031 187.5 20.457031 Z M 187.5 20.457031 " clip-rule="nonzero"/></clipPath><clipPath id="d4c3d2c7da"><path d="M 110 122 L 298.480469 122 L 298.480469 322.863281 L 110 322.863281 Z M 110 122 " clip-rule="nonzero"/></clipPath><clipPath id="1c2d9f15a3"><path d="M 76.480469 57 L 183 57 L 183 171 L 76.480469 171 Z M 76.480469 57 " clip-rule="nonzero"/></clipPath><clipPath id="cb57f4a44a"><path d="M 195 52.113281 L 231 52.113281 L 231 90 L 195 90 Z M 195 52.113281 " clip-rule="nonzero"/></clipPath></defs><g clip-path="url(#488837c472)"><g clip-path="url(#c50bc45c47)"><path fill="#ff5757" d="M 20.457031 20.457031 L 354.542969 20.457031 L 354.542969 354.542969 L 20.457031 354.542969 Z M 20.457031 20.457031 " fill-opacity="1" fill-rule="nonzero"/></g></g><g clip-path="url(#d4c3d2c7da)"><path fill="#181919" d="M 205.191406 122.222656 L 204.910156 122.222656 C 203.476562 206.625 191.855469 219.773438 110.109375 221.609375 L 110.109375 222.078125 C 192.300781 223.921875 203.601562 237.210938 204.929688 322.859375 L 205.167969 322.859375 C 206.492188 237.761719 217.660156 224.09375 298.417969 222.113281 L 298.417969 221.570312 C 218.101562 219.601562 206.613281 206.082031 205.191406 122.222656 " fill-opacity="1" fill-rule="nonzero"/></g><g clip-path="url(#1c2d9f15a3)"><path fill="#181919" d="M 130.242188 57.742188 L 130.085938 57.742188 C 129.277344 105.367188 122.71875 112.785156 76.59375 113.816406 L 76.59375 114.082031 C 122.96875 115.125 129.347656 122.621094 130.09375 170.949219 L 130.230469 170.949219 C 130.976562 122.933594 137.277344 115.222656 182.84375 114.101562 L 182.84375 113.796875 C 137.527344 112.6875 131.046875 105.054688 130.242188 57.742188 " fill-opacity="1" fill-rule="nonzero"/></g><path fill="#181919" d="M 266.429688 110.253906 L 266.34375 110.253906 C 265.910156 135.785156 262.394531 139.765625 237.664062 140.320312 L 237.664062 140.460938 C 262.527344 141.019531 265.949219 145.039062 266.347656 170.949219 L 266.421875 170.949219 C 266.820312 145.203125 270.199219 141.070312 294.628906 140.472656 L 294.628906 140.304688 C 270.332031 139.710938 266.859375 135.621094 266.429688 110.253906 " fill-opacity="1" fill-rule="nonzero"/><g clip-path="url(#cb57f4a44a)"><path fill="#181919" d="M 213.34375 52.113281 L 213.292969 52.113281 C 213.023438 67.785156 210.867188 70.226562 195.6875 70.566406 L 195.6875 70.65625 C 210.949219 70.996094 213.046875 73.464844 213.292969 89.367188 L 213.339844 89.367188 C 213.582031 73.566406 215.660156 71.027344 230.652344 70.660156 L 230.652344 70.5625 C 215.738281 70.195312 213.605469 67.683594 213.34375 52.113281 " fill-opacity="1" fill-rule="nonzero"/></g></svg>