<svg xmlns="http://www.w3.org/2000/svg" xmlns:xlink="http://www.w3.org/1999/xlink" width="500" zoomAndPan="magnify" viewBox="0 0 375 374.999991" height="500" preserveAspectRatio="xMidYMid meet" version="1.0"><defs><g/><clipPath id="b226398226"><path d="M 0 159.683594 L 79 159.683594 L 79 233.808594 L 0 233.808594 Z M 0 159.683594 " clip-rule="nonzero"/></clipPath><clipPath id="b285433783"><path d="M 39.410156 159.683594 C 17.644531 159.683594 0 176.277344 0 196.746094 C 0 217.21875 17.644531 233.808594 39.410156 233.808594 C 61.175781 233.808594 78.824219 217.21875 78.824219 196.746094 C 78.824219 176.277344 61.175781 159.683594 39.410156 159.683594 Z M 39.410156 159.683594 " clip-rule="nonzero"/></clipPath><clipPath id="ae704f4476"><path d="M 17 182 L 65.640625 182 L 65.640625 233.5 L 17 233.5 Z M 17 182 " clip-rule="nonzero"/></clipPath><clipPath id="62cf08eaa3"><path d="M 9.390625 166 L 37 166 L 37 196 L 9.390625 196 Z M 9.390625 166 " clip-rule="nonzero"/></clipPath><clipPath id="2e66ef7f96"><path d="M 39 165.25 L 49 165.25 L 49 175 L 39 175 Z M 39 165.25 " clip-rule="nonzero"/></clipPath></defs><g clip-path="url(#b226398226)"><g clip-path="url(#b285433783)"><path fill="#ff5757" d="M 0 159.683594 L 78.757812 159.683594 L 78.757812 233.808594 L 0 233.808594 Z M 0 159.683594 " fill-opacity="1" fill-rule="nonzero"/></g></g><g clip-path="url(#ae704f4476)"><path fill="#181919" d="M 42.003906 182.925781 L 41.929688 182.925781 C 41.570312 204.199219 38.625 207.515625 17.910156 207.976562 L 17.910156 208.09375 C 38.738281 208.558594 41.601562 211.910156 41.9375 233.5 L 41.996094 233.5 C 42.332031 212.050781 45.164062 208.605469 65.625 208.105469 L 65.625 207.96875 C 45.273438 207.472656 42.363281 204.0625 42.003906 182.925781 " fill-opacity="1" fill-rule="nonzero"/></g><g clip-path="url(#62cf08eaa3)"><path fill="#181919" d="M 23.011719 166.671875 L 22.972656 166.671875 C 22.765625 178.675781 21.105469 180.546875 9.417969 180.804688 L 9.417969 180.871094 C 21.167969 181.136719 22.785156 183.023438 22.976562 195.207031 L 23.007812 195.207031 C 23.199219 183.105469 24.796875 181.160156 36.339844 180.878906 L 36.339844 180.800781 C 24.859375 180.519531 23.214844 178.597656 23.011719 166.671875 " fill-opacity="1" fill-rule="nonzero"/></g><path fill="#181919" d="M 57.519531 179.90625 L 57.496094 179.90625 C 57.386719 186.34375 56.496094 187.347656 50.230469 187.484375 L 50.230469 187.523438 C 56.53125 187.664062 57.398438 188.675781 57.5 195.207031 L 57.515625 195.207031 C 57.617188 188.71875 58.476562 187.675781 64.664062 187.523438 L 64.664062 187.484375 C 58.507812 187.332031 57.628906 186.300781 57.519531 179.90625 " fill-opacity="1" fill-rule="nonzero"/><g clip-path="url(#2e66ef7f96)"><path fill="#181919" d="M 44.070312 165.25 L 44.054688 165.25 C 43.988281 169.203125 43.441406 169.816406 39.59375 169.902344 L 39.59375 169.925781 C 43.460938 170.011719 43.992188 170.632812 44.054688 174.640625 L 44.066406 174.640625 C 44.128906 170.660156 44.65625 170.019531 48.453125 169.925781 L 48.453125 169.902344 C 44.675781 169.808594 44.136719 169.175781 44.070312 165.25 " fill-opacity="1" fill-rule="nonzero"/></g><g fill="#000000" fill-opacity="1"><g transform="translate(78.822525, 207.99769)"><g><path d="M 2.296875 -26.75 C 2.273438 -26.75 2.316406 -26.757812 2.421875 -26.78125 C 2.554688 -26.8125 2.953125 -26.828125 3.609375 -26.828125 C 4.273438 -26.828125 5.242188 -26.828125 6.515625 -26.828125 L 10.90625 -26.828125 L 10.90625 3.015625 L 3.015625 3.015625 L 3.015625 -11.34375 C 3.015625 -16.164062 3.003906 -19.78125 2.984375 -22.1875 C 2.972656 -24.59375 2.957031 -25.847656 2.9375 -25.953125 C 2.851562 -26.296875 2.640625 -26.5625 2.296875 -26.75 Z M 11.953125 -26.828125 L 14.875 -26.828125 C 15.644531 -26.828125 16.285156 -26.828125 16.796875 -26.828125 C 17.316406 -26.828125 17.722656 -26.8125 18.015625 -26.78125 C 18.285156 -26.757812 18.550781 -26.726562 18.8125 -26.6875 C 19.070312 -26.644531 19.335938 -26.570312 19.609375 -26.46875 C 20.316406 -26.28125 21 -25.984375 21.65625 -25.578125 C 22.320312 -25.171875 22.925781 -24.6875 23.46875 -24.125 C 24.007812 -23.570312 24.476562 -22.957031 24.875 -22.28125 C 25.28125 -21.601562 25.585938 -20.921875 25.796875 -20.234375 C 26.566406 -17.804688 26.394531 -15.476562 25.28125 -13.25 C 24.644531 -11.976562 23.796875 -10.921875 22.734375 -10.078125 C 21.679688 -9.234375 20.476562 -8.613281 19.125 -8.21875 C 18.175781 -7.976562 16.585938 -7.859375 14.359375 -7.859375 L 11.953125 -7.859375 L 11.953125 -13.453125 L 13.53125 -13.5 C 14.539062 -13.5 15.175781 -13.523438 15.4375 -13.578125 C 17.238281 -14.179688 18.070312 -15.539062 17.9375 -17.65625 C 17.851562 -19.144531 17.285156 -20.097656 16.234375 -20.515625 C 15.992188 -20.617188 15.210938 -20.671875 13.890625 -20.671875 L 11.953125 -20.671875 Z M 11.953125 -26.828125 "/></g></g></g><g fill="#000000" fill-opacity="1"><g transform="translate(106.16184, 207.99769)"><g><path d="M 17.0625 -20.203125 L 17.46875 -20.203125 L 17.421875 -16.859375 L 17.421875 -12.78125 L 16.78125 -12.8125 C 15.40625 -12.894531 14.226562 -12.6875 13.25 -12.1875 C 12.695312 -11.894531 12.203125 -11.378906 11.765625 -10.640625 C 11.328125 -9.898438 11.03125 -9.039062 10.875 -8.0625 C 10.789062 -7.664062 10.75 -5.71875 10.75 -2.21875 L 10.75 3.015625 L 2.78125 3.015625 L 2.78125 -8.0625 C 2.78125 -11.789062 2.769531 -14.550781 2.75 -16.34375 C 2.738281 -18.144531 2.707031 -19.070312 2.65625 -19.125 C 2.519531 -19.414062 2.335938 -19.613281 2.109375 -19.71875 C 2.078125 -19.75 2.085938 -19.773438 2.140625 -19.796875 C 2.273438 -19.828125 2.691406 -19.84375 3.390625 -19.84375 C 4.085938 -19.84375 5.070312 -19.84375 6.34375 -19.84375 L 10.75 -19.84375 L 10.75 -15.953125 L 11.03125 -16.515625 C 11.53125 -17.703125 12.34375 -18.613281 13.46875 -19.25 C 14.59375 -19.882812 15.789062 -20.203125 17.0625 -20.203125 Z M 17.0625 -20.203125 "/></g></g></g><g fill="#000000" fill-opacity="1"><g transform="translate(124.17643, 207.99769)"><g><path d="M 13.453125 -20.078125 L 14.171875 -20.046875 C 15.753906 -19.960938 17.171875 -19.628906 18.421875 -19.046875 C 19.679688 -18.460938 20.753906 -17.679688 21.640625 -16.703125 C 22.535156 -15.722656 23.226562 -14.582031 23.71875 -13.28125 C 24.207031 -11.988281 24.488281 -10.578125 24.5625 -9.046875 C 24.664062 -6.585938 24.226562 -4.351562 23.25 -2.34375 C 21.875 0.4375 19.613281 2.179688 16.46875 2.890625 C 15.519531 3.160156 14.644531 3.296875 13.84375 3.296875 L 13.53125 3.296875 L 13.5 2.109375 C 13.519531 1.679688 13.53125 1.25 13.53125 0.8125 C 13.53125 0.375 13.53125 -0.09375 13.53125 -0.59375 C 13.53125 -1.601562 13.554688 -2.109375 13.609375 -2.109375 C 14.035156 -2.109375 14.523438 -2.304688 15.078125 -2.703125 C 16.085938 -3.285156 16.738281 -4.554688 17.03125 -6.515625 C 17.050781 -6.722656 17.066406 -6.988281 17.078125 -7.3125 C 17.097656 -7.644531 17.09375 -8.039062 17.0625 -8.5 C 17.039062 -8.96875 17.015625 -9.359375 16.984375 -9.671875 C 16.960938 -9.992188 16.921875 -10.265625 16.859375 -10.484375 C 16.703125 -11.460938 16.40625 -12.3125 15.96875 -13.03125 C 15.53125 -13.757812 14.769531 -14.21875 13.6875 -14.40625 L 13.453125 -14.453125 Z M 11.03125 -20 C 11.164062 -20.03125 11.316406 -20.046875 11.484375 -20.046875 C 11.660156 -20.046875 11.851562 -20.054688 12.0625 -20.078125 L 12.578125 -20.078125 L 12.578125 -17.65625 C 12.578125 -16.894531 12.578125 -16.273438 12.578125 -15.796875 C 12.578125 -15.316406 12.566406 -14.984375 12.546875 -14.796875 L 12.546875 -14.453125 L 12.109375 -14.328125 C 10.859375 -14.117188 10.007812 -13.328125 9.5625 -11.953125 C 9.351562 -11.335938 9.222656 -10.640625 9.171875 -9.859375 C 9.117188 -9.078125 9.117188 -8.222656 9.171875 -7.296875 C 9.222656 -6.796875 9.285156 -6.285156 9.359375 -5.765625 C 9.441406 -5.253906 9.585938 -4.765625 9.796875 -4.296875 C 10.015625 -3.835938 10.296875 -3.441406 10.640625 -3.109375 C 10.984375 -2.785156 11.429688 -2.539062 11.984375 -2.375 L 12.5 -2.265625 L 12.546875 0.46875 L 12.546875 3.21875 L 11.78125 3.21875 C 9.664062 3.21875 7.75 2.632812 6.03125 1.46875 C 3.570312 -0.195312 2.128906 -2.921875 1.703125 -6.703125 C 1.335938 -9.773438 1.816406 -12.472656 3.140625 -14.796875 C 3.929688 -16.234375 5.023438 -17.410156 6.421875 -18.328125 C 7.828125 -19.253906 9.363281 -19.8125 11.03125 -20 Z M 11.03125 -20 "/></g></g></g><g fill="#000000" fill-opacity="1"><g transform="translate(150.365031, 207.99769)"><g><path d="M 14.921875 -20.046875 C 15.503906 -20.117188 16.210938 -20.140625 17.046875 -20.109375 C 17.878906 -20.085938 18.546875 -20.015625 19.046875 -19.890625 C 20.347656 -19.546875 21.40625 -18.773438 22.21875 -17.578125 C 22.332031 -17.367188 22.398438 -17.265625 22.421875 -17.265625 C 22.453125 -17.265625 22.625 -17.421875 22.9375 -17.734375 C 24.238281 -18.984375 25.8125 -19.753906 27.65625 -20.046875 C 28.925781 -20.222656 30.144531 -20.15625 31.3125 -19.84375 C 32.476562 -19.53125 33.414062 -19.015625 34.125 -18.296875 C 35.132812 -17.285156 35.863281 -15.773438 36.3125 -13.765625 C 36.363281 -13.398438 36.40625 -10.53125 36.4375 -5.15625 L 36.46875 3.015625 L 28.5 3.015625 L 28.5 -12.421875 L 28.296875 -12.890625 C 28.085938 -13.554688 27.726562 -13.941406 27.21875 -14.046875 C 26.300781 -14.335938 25.523438 -14.328125 24.890625 -14.015625 C 24.359375 -13.742188 23.90625 -13.054688 23.53125 -11.953125 L 23.375 -11.46875 L 23.375 -4.28125 L 23.34375 3.015625 L 15.3125 3.015625 L 15.3125 -12.703125 L 15.203125 -13.09375 C 14.929688 -13.78125 14.335938 -14.175781 13.421875 -14.28125 C 12.648438 -14.332031 12.015625 -14.125 11.515625 -13.65625 C 11.085938 -13.207031 10.78125 -12.609375 10.59375 -11.859375 C 10.570312 -11.734375 10.546875 -11.578125 10.515625 -11.390625 C 10.492188 -11.203125 10.484375 -10.9375 10.484375 -10.59375 C 10.453125 -10.25 10.4375 -9.546875 10.4375 -8.484375 C 10.4375 -7.429688 10.4375 -6.003906 10.4375 -4.203125 L 10.4375 3.015625 L 2.546875 3.015625 L 2.546875 -10.484375 C 2.546875 -12.804688 2.546875 -14.609375 2.546875 -15.890625 C 2.546875 -17.171875 2.53125 -18.015625 2.5 -18.421875 C 2.445312 -19.179688 2.34375 -19.601562 2.1875 -19.6875 C 2.15625 -19.707031 2.128906 -19.71875 2.109375 -19.71875 C 2.023438 -19.769531 2.0625 -19.8125 2.21875 -19.84375 L 10.4375 -19.84375 L 10.4375 -17.140625 L 10.71875 -17.546875 C 11.664062 -18.941406 13.066406 -19.773438 14.921875 -20.046875 Z M 14.921875 -20.046875 "/></g></g></g><g fill="#000000" fill-opacity="1"><g transform="translate(189.409856, 207.99769)"><g><path d="M 16.828125 -20.046875 C 17.378906 -20.046875 17.894531 -19.976562 18.375 -19.84375 C 18.851562 -19.707031 19.410156 -19.492188 20.046875 -19.203125 C 21.097656 -18.703125 21.972656 -18.066406 22.671875 -17.296875 C 23.378906 -16.535156 23.9375 -15.691406 24.34375 -14.765625 C 24.757812 -13.835938 25.050781 -12.847656 25.21875 -11.796875 C 25.394531 -10.753906 25.484375 -9.691406 25.484375 -8.609375 C 25.484375 -7.660156 25.398438 -6.695312 25.234375 -5.71875 C 25.078125 -4.738281 24.820312 -3.789062 24.46875 -2.875 C 24.113281 -1.96875 23.65625 -1.125 23.09375 -0.34375 C 22.539062 0.4375 21.851562 1.109375 21.03125 1.671875 C 19.570312 2.703125 17.957031 3.21875 16.1875 3.21875 C 14.175781 3.21875 12.429688 2.617188 10.953125 1.421875 C 10.898438 1.367188 10.820312 1.316406 10.71875 1.265625 C 10.6875 1.242188 10.660156 1.21875 10.640625 1.1875 C 10.609375 1.1875 10.59375 2.414062 10.59375 4.875 L 10.59375 11.265625 L 2.734375 11.265625 L 2.734375 -18.9375 L 2.625 -19.25 C 2.507812 -19.457031 2.347656 -19.613281 2.140625 -19.71875 L 1.828125 -19.84375 L 10.59375 -19.84375 L 10.59375 -16.984375 L 10.953125 -17.46875 C 11.640625 -18.382812 12.503906 -19.039062 13.546875 -19.4375 C 14.597656 -19.84375 15.691406 -20.046875 16.828125 -20.046875 Z M 13.21875 -14.09375 C 13.082031 -14.09375 12.941406 -14.082031 12.796875 -14.0625 C 12.648438 -14.050781 12.507812 -14.035156 12.375 -14.015625 C 11.851562 -13.878906 11.429688 -13.546875 11.109375 -13.015625 C 10.796875 -12.484375 10.640625 -11.957031 10.640625 -11.4375 C 10.609375 -11.269531 10.59375 -10.945312 10.59375 -10.46875 C 10.59375 -10 10.59375 -9.378906 10.59375 -8.609375 C 10.59375 -6.578125 10.660156 -5.332031 10.796875 -4.875 C 11.003906 -4.03125 11.3125 -3.429688 11.71875 -3.078125 C 12.132812 -2.722656 12.765625 -2.546875 13.609375 -2.546875 C 14.296875 -2.546875 14.757812 -2.597656 15 -2.703125 C 15.789062 -3.097656 16.347656 -3.796875 16.671875 -4.796875 C 16.960938 -5.703125 17.09375 -6.816406 17.0625 -8.140625 C 17.0625 -8.796875 17.019531 -9.472656 16.9375 -10.171875 C 16.863281 -10.878906 16.691406 -11.523438 16.421875 -12.109375 C 16.160156 -12.691406 15.78125 -13.164062 15.28125 -13.53125 C 14.78125 -13.90625 14.09375 -14.09375 13.21875 -14.09375 Z M 13.21875 -14.09375 "/></g></g></g><g fill="#000000" fill-opacity="1"><g transform="translate(216.471412, 207.99769)"><g><path d="M 3.375 -25.046875 C 3.53125 -25.046875 3.710938 -25.054688 3.921875 -25.078125 C 4.140625 -25.078125 4.378906 -25.082031 4.640625 -25.09375 C 4.910156 -25.113281 5.226562 -25.125 5.59375 -25.125 L 12.578125 -25.125 L 12.578125 -19.84375 L 16.46875 -19.84375 L 16.46875 -13.6875 L 12.546875 -13.6875 L 12.625 -3.84375 L 12.734375 -3.453125 C 12.972656 -2.921875 13.332031 -2.535156 13.8125 -2.296875 C 14 -2.191406 14.421875 -2.140625 15.078125 -2.140625 L 16.03125 -2.140625 L 16.03125 3.0625 L 12.109375 3.015625 L 10.359375 3.015625 C 9.691406 3.015625 9.046875 2.960938 8.421875 2.859375 C 7.804688 2.753906 7.238281 2.5625 6.71875 2.28125 C 6.207031 2 5.769531 1.617188 5.40625 1.140625 C 5.050781 0.671875 4.796875 0.0507812 4.640625 -0.71875 C 4.566406 -1.082031 4.53125 -3.410156 4.53125 -7.703125 L 4.53125 -13.6875 L 1.46875 -13.6875 L 1.46875 -19.84375 L 4.53125 -19.84375 L 4.53125 -21.703125 C 4.53125 -22.921875 4.488281 -23.664062 4.40625 -23.9375 C 4.300781 -24.144531 4.148438 -24.359375 3.953125 -24.578125 C 3.753906 -24.804688 3.5625 -24.960938 3.375 -25.046875 Z M 3.375 -25.046875 "/></g></g></g><g fill="#000000" fill-opacity="1"><g transform="translate(234.327284, 207.99769)"><g><path d="M 2.34375 -26.703125 C 2.289062 -26.734375 2.316406 -26.757812 2.421875 -26.78125 C 2.578125 -26.8125 3.164062 -26.828125 4.1875 -26.828125 C 5.207031 -26.828125 6.671875 -26.828125 8.578125 -26.828125 C 12.890625 -26.828125 15.070312 -26.800781 15.125 -26.75 C 15.175781 -26.488281 15.453125 -25.175781 15.953125 -22.8125 C 15.953125 -22.789062 15.972656 -22.679688 16.015625 -22.484375 C 16.054688 -22.285156 16.101562 -22.066406 16.15625 -21.828125 C 16.207031 -21.585938 16.25 -21.351562 16.28125 -21.125 C 16.320312 -20.90625 16.359375 -20.742188 16.390625 -20.640625 C 16.816406 -18.734375 17.21875 -16.847656 17.59375 -14.984375 C 17.976562 -13.117188 18.359375 -11.234375 18.734375 -9.328125 C 18.835938 -8.609375 18.914062 -8.222656 18.96875 -8.171875 L 19.484375 -10 C 19.585938 -10.394531 19.71875 -10.941406 19.875 -11.640625 C 20.039062 -12.347656 20.226562 -13.203125 20.4375 -14.203125 C 20.644531 -14.890625 20.828125 -15.59375 20.984375 -16.3125 C 21.148438 -17.03125 21.300781 -17.742188 21.4375 -18.453125 C 21.5625 -18.898438 21.675781 -19.378906 21.78125 -19.890625 C 21.894531 -20.285156 22.003906 -20.726562 22.109375 -21.21875 C 22.210938 -21.707031 22.304688 -22.175781 22.390625 -22.625 C 23.023438 -25.21875 23.34375 -26.523438 23.34375 -26.546875 L 23.421875 -26.828125 L 35.046875 -26.828125 L 35.046875 3.015625 L 27.3125 3.015625 L 27.3125 -21.03125 L 26.875 -19.375 C 26.070312 -16.25 25.296875 -12.976562 24.546875 -9.5625 C 23.796875 -6.144531 23.0625 -2.570312 22.34375 1.15625 L 21.984375 3.015625 L 15.125 3.015625 L 14.875 1.671875 C 14.53125 -0.335938 14.210938 -2.15625 13.921875 -3.78125 C 13.640625 -5.414062 13.378906 -6.867188 13.140625 -8.140625 C 12.691406 -10.546875 12.320312 -12.5 12.03125 -14 C 11.738281 -15.507812 11.523438 -16.609375 11.390625 -17.296875 C 11.253906 -17.984375 11.144531 -18.53125 11.0625 -18.9375 C 10.988281 -19.351562 10.9375 -19.628906 10.90625 -19.765625 C 10.90625 -19.867188 10.898438 -19.8125 10.890625 -19.59375 C 10.878906 -19.382812 10.875 -18.847656 10.875 -17.984375 C 10.894531 -17.554688 10.898438 -17.054688 10.890625 -16.484375 C 10.878906 -15.921875 10.875 -15.296875 10.875 -14.609375 C 10.84375 -13.921875 10.828125 -13.070312 10.828125 -12.0625 C 10.828125 -11.0625 10.828125 -9.910156 10.828125 -8.609375 L 10.828125 3.015625 L 2.9375 3.015625 L 2.9375 -11.59375 C 2.9375 -15.21875 2.9375 -18.085938 2.9375 -20.203125 C 2.9375 -22.316406 2.921875 -23.691406 2.890625 -24.328125 C 2.835938 -25.597656 2.785156 -26.285156 2.734375 -26.390625 C 2.679688 -26.523438 2.550781 -26.628906 2.34375 -26.703125 Z M 2.34375 -26.703125 "/></g></g></g><g fill="#000000" fill-opacity="1"><g transform="translate(272.340434, 207.99769)"><g><path d="M 1.546875 -19.71875 C 1.390625 -19.769531 1.414062 -19.796875 1.625 -19.796875 C 1.601562 -19.828125 1.941406 -19.84375 2.640625 -19.84375 C 3.335938 -19.84375 4.363281 -19.84375 5.71875 -19.84375 L 10.59375 -19.84375 L 10.59375 -11.546875 C 10.59375 -9.722656 10.59375 -8.269531 10.59375 -7.1875 C 10.59375 -6.101562 10.609375 -5.390625 10.640625 -5.046875 C 10.691406 -4.359375 10.796875 -3.894531 10.953125 -3.65625 L 11.03125 -3.578125 C 11.269531 -3.285156 11.582031 -3.066406 11.96875 -2.921875 C 12.351562 -2.773438 12.726562 -2.703125 13.09375 -2.703125 C 13.78125 -2.703125 14.320312 -2.890625 14.71875 -3.265625 C 15.113281 -3.648438 15.40625 -4.160156 15.59375 -4.796875 C 15.625 -4.929688 15.644531 -5.582031 15.65625 -6.75 C 15.664062 -7.914062 15.671875 -9.617188 15.671875 -11.859375 C 15.671875 -16.285156 15.644531 -18.601562 15.59375 -18.8125 C 15.570312 -18.96875 15.46875 -19.140625 15.28125 -19.328125 C 15.09375 -19.515625 14.90625 -19.644531 14.71875 -19.71875 C 14.5625 -19.769531 14.601562 -19.796875 14.84375 -19.796875 C 14.976562 -19.828125 15.378906 -19.84375 16.046875 -19.84375 C 16.722656 -19.84375 17.695312 -19.84375 18.96875 -19.84375 L 23.453125 -19.84375 L 23.453125 3.015625 L 15.671875 3.015625 L 15.671875 0.515625 L 15.078125 1.078125 C 13.515625 2.554688 11.609375 3.296875 9.359375 3.296875 C 7.671875 3.296875 6.265625 2.835938 5.140625 1.921875 C 4.015625 1.015625 3.226562 -0.234375 2.78125 -1.828125 L 2.578125 -2.5 L 2.578125 -18.5 L 2.34375 -18.84375 C 2.15625 -19.269531 1.890625 -19.5625 1.546875 -19.71875 Z M 1.546875 -19.71875 "/></g></g></g><g fill="#000000" fill-opacity="1"><g transform="translate(298.489358, 207.99769)"><g><path d="M 11.953125 -20.15625 C 13.210938 -20.15625 14.503906 -19.957031 15.828125 -19.5625 C 17.148438 -19.164062 18.289062 -18.554688 19.25 -17.734375 C 19.78125 -17.265625 20.253906 -16.617188 20.671875 -15.796875 C 21.097656 -14.972656 21.351562 -14.207031 21.4375 -13.5 L 21.515625 -13.09375 L 14.046875 -13.09375 L 13.96875 -13.5 C 13.863281 -14.101562 13.613281 -14.554688 13.21875 -14.859375 C 12.820312 -15.160156 12.34375 -15.3125 11.78125 -15.3125 C 11.125 -15.3125 10.597656 -15.195312 10.203125 -14.96875 C 9.859375 -14.726562 9.628906 -14.441406 9.515625 -14.109375 C 9.410156 -13.773438 9.441406 -13.460938 9.609375 -13.171875 C 9.734375 -12.984375 9.898438 -12.820312 10.109375 -12.6875 C 10.328125 -12.5625 10.582031 -12.429688 10.875 -12.296875 C 11.457031 -12.066406 12.53125 -11.765625 14.09375 -11.390625 C 14.695312 -11.253906 15.335938 -11.085938 16.015625 -10.890625 C 16.691406 -10.691406 17.347656 -10.445312 17.984375 -10.15625 C 18.617188 -9.863281 19.207031 -9.503906 19.75 -9.078125 C 20.289062 -8.660156 20.71875 -8.160156 21.03125 -7.578125 C 21.71875 -6.410156 21.984375 -5.078125 21.828125 -3.578125 C 21.691406 -2.253906 21.3125 -1.144531 20.6875 -0.25 C 20.070312 0.632812 19.300781 1.335938 18.375 1.859375 C 17.445312 2.390625 16.421875 2.765625 15.296875 2.984375 C 14.171875 3.210938 13.023438 3.328125 11.859375 3.328125 C 10.671875 3.328125 9.46875 3.222656 8.25 3.015625 C 7.03125 2.804688 5.914062 2.429688 4.90625 1.890625 C 3.90625 1.347656 3.066406 0.613281 2.390625 -0.3125 C 1.722656 -1.238281 1.320312 -2.414062 1.1875 -3.84375 L 1.15625 -4.28125 L 4.875 -4.25 L 8.578125 -4.25 L 8.65625 -3.84375 C 8.707031 -3.445312 8.84375 -3.113281 9.0625 -2.84375 C 9.289062 -2.582031 9.554688 -2.359375 9.859375 -2.171875 C 10.160156 -1.992188 10.5 -1.863281 10.875 -1.78125 C 11.25 -1.707031 11.609375 -1.671875 11.953125 -1.671875 C 12.234375 -1.671875 12.550781 -1.703125 12.90625 -1.765625 C 13.269531 -1.828125 13.554688 -1.96875 13.765625 -2.1875 C 14.035156 -2.425781 14.21875 -2.695312 14.3125 -3 C 14.40625 -3.300781 14.382812 -3.582031 14.25 -3.84375 C 14.144531 -4.0625 14.003906 -4.25 13.828125 -4.40625 C 13.660156 -4.5625 13.441406 -4.707031 13.171875 -4.84375 C 12.960938 -4.945312 12.546875 -5.09375 11.921875 -5.28125 C 11.304688 -5.46875 10.492188 -5.707031 9.484375 -6 C 6.992188 -6.6875 5.25 -7.375 4.25 -8.0625 C 3.394531 -8.613281 2.789062 -9.296875 2.4375 -10.109375 C 2.082031 -10.929688 1.90625 -11.820312 1.90625 -12.78125 C 1.875 -13.78125 2.046875 -14.707031 2.421875 -15.5625 C 2.898438 -16.488281 3.484375 -17.25 4.171875 -17.84375 C 4.859375 -18.4375 5.617188 -18.90625 6.453125 -19.25 C 7.285156 -19.59375 8.171875 -19.828125 9.109375 -19.953125 C 10.046875 -20.085938 10.992188 -20.15625 11.953125 -20.15625 Z M 11.953125 -20.15625 "/></g></g></g><g fill="#000000" fill-opacity="1"><g transform="translate(321.543273, 207.99769)"><g><path d="M 11.3125 -20.125 C 11.519531 -20.144531 11.78125 -20.15625 12.09375 -20.15625 C 12.414062 -20.15625 12.800781 -20.15625 13.25 -20.15625 C 13.707031 -20.132812 14.097656 -20.109375 14.421875 -20.078125 C 14.753906 -20.054688 15.039062 -20.019531 15.28125 -19.96875 C 16.863281 -19.695312 18.195312 -19.195312 19.28125 -18.46875 C 20.375 -17.75 21.242188 -16.859375 21.890625 -15.796875 C 22.535156 -14.734375 23.007812 -13.550781 23.3125 -12.25 C 23.613281 -10.957031 23.78125 -9.597656 23.8125 -8.171875 L 23.8125 -6.90625 L 16.828125 -6.859375 L 9.84375 -6.859375 L 9.765625 -6.546875 C 9.734375 -6.285156 9.757812 -5.785156 9.84375 -5.046875 C 9.945312 -4.171875 10.195312 -3.441406 10.59375 -2.859375 C 10.988281 -2.273438 11.691406 -1.984375 12.703125 -1.984375 C 13.335938 -1.984375 13.898438 -2.113281 14.390625 -2.375 C 14.878906 -2.644531 15.226562 -3.097656 15.4375 -3.734375 C 15.570312 -4.046875 15.648438 -4.203125 15.671875 -4.203125 C 15.773438 -4.253906 17.070312 -4.28125 19.5625 -4.28125 C 22.082031 -4.28125 23.367188 -4.253906 23.421875 -4.203125 C 23.492188 -4.203125 23.398438 -3.882812 23.140625 -3.25 C 22.660156 -2.03125 22.0625 -1.003906 21.34375 -0.171875 C 20.632812 0.660156 19.828125 1.332031 18.921875 1.84375 C 18.023438 2.363281 17.039062 2.734375 15.96875 2.953125 C 14.894531 3.179688 13.753906 3.296875 12.546875 3.296875 C 11.453125 3.296875 10.34375 3.175781 9.21875 2.9375 C 8.101562 2.695312 7.09375 2.285156 6.1875 1.703125 C 6.0625 1.628906 5.882812 1.488281 5.65625 1.28125 C 5.425781 1.082031 5.195312 0.863281 4.96875 0.625 C 4.75 0.394531 4.535156 0.160156 4.328125 -0.078125 C 4.117188 -0.316406 3.957031 -0.515625 3.84375 -0.671875 C 3.03125 -1.785156 2.429688 -3.085938 2.046875 -4.578125 C 1.660156 -6.078125 1.519531 -7.632812 1.625 -9.25 C 1.863281 -12.394531 2.800781 -14.898438 4.4375 -16.765625 C 6.082031 -18.628906 8.375 -19.75 11.3125 -20.125 Z M 13.65625 -15.046875 C 13.519531 -15.066406 13.378906 -15.082031 13.234375 -15.09375 C 13.085938 -15.113281 12.945312 -15.125 12.8125 -15.125 C 11.707031 -15.125 10.945312 -14.789062 10.53125 -14.125 C 10.125 -13.46875 9.867188 -12.632812 9.765625 -11.625 L 9.6875 -11.109375 L 16.03125 -11.109375 L 16 -11.390625 C 15.96875 -11.941406 15.84375 -12.503906 15.625 -13.078125 C 15.414062 -13.648438 15.195312 -14.09375 14.96875 -14.40625 C 14.695312 -14.75 14.257812 -14.960938 13.65625 -15.046875 Z M 13.65625 -15.046875 "/></g></g></g></svg>